<?xml version="1.0" encoding="UTF-8"?>
<svg version="1.1" xmlns="http://www.w3.org/2000/svg" width="1000" height="1000">
<path d="M0 0 C0.69869705 -0.00111156 1.3973941 -0.00222313 2.11726379 -0.00336838 C19.65293788 -0.02809038 36.99482027 0.49286223 54.4375 2.375 C55.60095947 2.4898877 56.76441895 2.60477539 57.96313477 2.72314453 C145.82338069 11.64394923 232.79022197 47.41489721 302.4375 101.375 C302.97648926 101.78927246 303.51547852 102.20354492 304.07080078 102.63037109 C316.48140429 112.17780489 328.31553757 122.30929389 339.79296875 132.95703125 C342.04580359 135.01686103 344.33665663 136.991812 346.6875 138.9375 C347.595 139.741875 348.5025 140.54625 349.4375 141.375 C349.4375 142.035 349.4375 142.695 349.4375 143.375 C350.01113281 143.61089844 350.58476563 143.84679687 351.17578125 144.08984375 C353.94490972 145.66332089 355.55059973 147.52303411 357.625 149.9375 C360.62330118 153.36272786 363.67056943 156.64283356 366.9375 159.8125 C371.04933804 163.86712986 374.6637936 168.20531696 378.26953125 172.7109375 C380.1751723 175.05264416 382.14330013 177.28009323 384.1875 179.5 C390.3979103 186.41417449 395.86526847 193.9464779 401.4375 201.375 C402.17154053 202.34711426 402.17154053 202.34711426 402.92041016 203.33886719 C417.41943393 222.56725084 429.74334475 243.15593182 441.27929688 264.26708984 C442.30270039 266.12966699 443.34524091 267.98170141 444.390625 269.83203125 C472.59042917 320.72201399 488.65686883 379.01750206 496.4375 436.375 C496.60266113 437.55368652 496.76782227 438.73237305 496.93798828 439.94677734 C502.26785806 479.83536842 502.09913748 523.54468992 496.4375 563.375 C496.18009033 565.29771729 496.18009033 565.29771729 495.91748047 567.25927734 C489.71048495 613.41820905 477.34624352 658.45216661 458.46337891 701.04248047 C457.51053901 703.20893273 456.58360116 705.38401859 455.66796875 707.56640625 C451.54345268 717.34156936 446.76560533 726.70084926 441.70947266 736.02539062 C440.50754191 738.2456174 439.32133131 740.47362602 438.13671875 742.703125 C427.47495502 762.54685758 414.95474422 781.37182324 401.4375 799.375 C400.99212891 799.97199707 400.54675781 800.56899414 400.08789062 801.18408203 C391.84111394 812.20993513 382.97894266 822.69274889 373.703125 832.86328125 C372.48708666 834.21140651 371.27670804 835.56537508 370.10522461 836.95239258 C364.54400489 843.49045415 358.46120679 849.50224486 352.38598633 855.55688477 C350.50421726 857.43329475 348.62785262 859.31498969 346.75195312 861.19726562 C340.81850571 867.13439973 334.88118849 872.98585182 328.4375 878.375 C327.33417478 879.32238046 326.23129638 880.27028161 325.12890625 881.21875 C319.01083397 886.42596683 312.84225476 891.52170757 306.4375 896.375 C305.34881241 897.21856171 304.26028439 898.06232938 303.171875 898.90625 C286.75485229 911.53004436 269.41303717 923.08695788 251.4375 933.375 C250.81004883 933.73609863 250.18259766 934.09719727 249.53613281 934.46923828 C245.52510944 936.77164141 241.49411076 939.0349516 237.44384766 941.26757812 C236.1418296 941.98623886 234.84188737 942.70867826 233.54443359 943.43554688 C183.83098965 971.22229618 127.52092683 987.91562854 71.4375 996.375 C70.72579651 996.48261658 70.01409302 996.59023315 69.28082275 996.70111084 C46.42975869 1000.08949468 23.56018609 1000.761582 0.49487305 1000.80756378 C-1.57985879 1000.81239489 -3.65453464 1000.82165259 -5.72924805 1000.83148193 C-25.54528253 1000.90537394 -44.89723764 999.68722237 -64.5625 997.375 C-65.41733978 997.27520844 -66.27217957 997.17541687 -67.15292358 997.07260132 C-71.49235093 996.55282943 -75.80954526 995.93990146 -80.125 995.25 C-81.41559326 995.04391113 -82.70618652 994.83782227 -84.03588867 994.62548828 C-141.63683683 985.11264558 -199.37300957 965.39232343 -249.5625 935.375 C-250.45437012 934.84696777 -251.34624023 934.31893555 -252.26513672 933.77490234 C-264.67357667 926.4112188 -276.85265486 918.80965636 -288.5625 910.375 C-289.33609863 909.81780273 -290.10969727 909.26060547 -290.90673828 908.68652344 C-300.3542401 901.85327207 -309.67938632 894.93343883 -318.5625 887.375 C-319.10712891 886.91383789 -319.65175781 886.45267578 -320.21289062 885.97753906 C-330.84960797 876.96506135 -341.27249498 867.83286334 -351.01953125 857.85546875 C-353.42417489 855.50992541 -355.93984493 853.46791349 -358.5625 851.375 C-359.57710564 850.30330658 -360.55753637 849.19815562 -361.5 848.0625 C-364.43729601 844.61744385 -367.48732133 841.30555246 -370.59448242 838.01489258 C-376.88538505 831.35065251 -382.86477088 824.55866539 -388.5625 817.375 C-389.49207571 816.23582397 -390.42315547 815.09787416 -391.35546875 813.9609375 C-398.88317633 804.73918771 -405.8398532 795.19636681 -412.5625 785.375 C-413.0575 784.65441406 -413.5525 783.93382812 -414.0625 783.19140625 C-459.47944584 716.84008694 -488.11849928 640.93104118 -497.8125 561.0625 C-497.89567474 560.37820923 -497.97884949 559.69391846 -498.06454468 558.9888916 C-499.71932617 545.20244261 -500.71377966 531.49699499 -500.765625 517.60546875 C-500.77268463 516.33817429 -500.77974426 515.07087982 -500.78701782 513.7651825 C-500.80453215 509.69758012 -500.81171 505.6301322 -500.8125 501.5625 C-500.81279457 500.86851357 -500.81308914 500.17452713 -500.81339264 499.4595108 C-500.8148437 478.29313791 -500.57884593 457.36844508 -497.5625 436.375 C-497.46304077 435.67445496 -497.36358154 434.97390991 -497.2611084 434.25213623 C-488.44677897 372.55013188 -470.06793662 312.02017518 -438.94921875 257.796875 C-437.59234426 255.42712237 -436.26262821 253.0438684 -434.9375 250.65625 C-418.51954792 221.35359464 -398.48260395 193.46891169 -375.72265625 168.74609375 C-374.55363466 167.46291815 -373.39156457 166.17247094 -372.27197266 164.84594727 C-366.48444573 158.03272464 -360.13846117 151.76488692 -353.82128906 145.44848633 C-351.82586586 143.45088048 -349.83858944 141.44540647 -347.8515625 139.43945312 C-340.72327393 132.28012346 -333.49956739 125.63594255 -325.5625 119.375 C-324.40977118 118.39234844 -323.264039 117.40136394 -322.12890625 116.3984375 C-296.26225123 93.55724598 -266.77547987 74.9031469 -236.5625 58.375 C-235.56017334 57.82247559 -235.56017334 57.82247559 -234.53759766 57.25878906 C-162.73291323 17.80641778 -81.37225281 0.04421372 0 0 Z " fill="#FEFEFE" transform="translate(500.5625,-0.375)"/>
<path d="M0 0 C3.8138455 1.43103583 4.88312957 4.15659927 6.59375 7.703125 C7.02300781 8.734375 7.45226562 9.765625 7.89453125 10.828125 C8.33152344 11.859375 8.76851563 12.890625 9.21875 13.953125 C10.20703125 16.828125 10.20703125 16.828125 10.20703125 20.828125 C3.32388782 20.02775948 -2.90831768 18.41689063 -9.79296875 16.828125 C-9.79296875 72.928125 -9.79296875 129.028125 -9.79296875 186.828125 C-2.53296875 187.158125 4.72703125 187.488125 12.20703125 187.828125 C16.25194901 188.48084418 19.97034653 189.13620262 23.89453125 190.140625 C25.81485703 190.5960953 27.73543443 191.05050594 29.65625 191.50390625 C31.0491626 191.84156006 31.0491626 191.84156006 32.47021484 192.18603516 C35.9022193 192.99122443 39.35184218 193.67476266 42.81054688 194.35400391 C50.63087094 195.90117886 58.02747178 197.9036937 65.5546875 200.5546875 C68.64394174 201.63179647 71.74317442 202.61449861 74.87695312 203.55224609 C93.58266928 209.18171362 114.02431706 215.64541081 128.20703125 229.828125 C131.4962962 230.33008794 131.4962962 230.33008794 135.20703125 229.828125 C136.63795482 228.52439464 138.06801742 227.21910449 139.46484375 225.87890625 C143.02844654 223.72955838 147.3263292 224.98652697 151.20703125 225.828125 C152.19703125 226.158125 153.18703125 226.488125 154.20703125 226.828125 C157.74453357 227.05988165 161.28772922 227.01330239 164.83203125 227.015625 C165.79238281 227.02787109 166.75273438 227.04011719 167.7421875 227.05273438 C173.8496029 227.06516466 179.31331811 226.40256667 185.20703125 224.828125 C186.05652344 224.63992188 186.90601563 224.45171875 187.78125 224.2578125 C199.72270077 221.12345758 210.90497078 213.89307751 219.20703125 204.828125 C219.70589844 203.96445312 220.20476562 203.10078125 220.71875 202.2109375 C223.16232652 198.062397 225.21668445 195.49600011 229.91503906 193.91943359 C236.36391606 192.29779196 242.89366548 191.19504547 249.47143555 190.24194336 C252.06319438 189.84988346 254.63668916 189.34219342 257.20703125 188.828125 C262.81703125 188.828125 268.42703125 188.828125 274.20703125 188.828125 C274.20703125 131.738125 274.20703125 74.648125 274.20703125 15.828125 C262.06427744 17.10630961 250.97445261 18.45154278 239.26953125 21.328125 C237.9448877 21.64028452 236.62001723 21.95148269 235.29492188 22.26171875 C229.00971911 23.60981062 229.00971911 23.60981062 223.06420898 25.93164062 C221.20703125 26.828125 221.20703125 26.828125 217.20703125 26.828125 C217.87907054 22.3071334 219.52499661 18.33790571 221.39453125 14.203125 C221.67361328 13.53539062 221.95269531 12.86765625 222.24023438 12.1796875 C224.43398702 7.33696644 226.37505984 5.81564178 231.20703125 3.828125 C233.74843229 3.2599961 236.17844114 2.80076204 238.74609375 2.44140625 C239.81866425 2.28055542 239.81866425 2.28055542 240.91290283 2.11645508 C243.21751407 1.77705539 245.5240682 1.45638126 247.83203125 1.140625 C248.61515686 1.03172943 249.39828247 0.92283386 250.20513916 0.81063843 C259.46574066 -0.4629168 268.72482777 -1.67520666 278.08203125 -1.859375 C278.85756348 -1.8905542 279.6330957 -1.9217334 280.43212891 -1.95385742 C284.50582104 -1.91532124 286.09902267 -1.26632957 289.1953125 1.44140625 C291.47614792 5.28118161 291.74470374 7.28974414 291.51953125 11.703125 C291.45185547 13.43175781 291.45185547 13.43175781 291.3828125 15.1953125 C291.32480469 16.06414062 291.26679687 16.93296875 291.20703125 17.828125 C292.30402344 17.78171875 293.40101563 17.7353125 294.53125 17.6875 C295.98564975 17.6499671 297.44007908 17.61356857 298.89453125 17.578125 C299.61576172 17.54460937 300.33699219 17.51109375 301.08007812 17.4765625 C301.78583984 17.46367187 302.49160156 17.45078125 303.21875 17.4375 C304.18494263 17.4060791 304.18494263 17.4060791 305.1706543 17.37402344 C308.37803493 18.08925278 309.91303111 19.49244356 312.20703125 21.828125 C312.71444962 24.61750814 312.89255621 26.80583934 312.85540771 29.59579468 C312.8646188 30.38310459 312.87382988 31.1704145 312.88332009 31.98158228 C312.90796946 34.62275776 312.89682615 37.26255903 312.88574219 39.90380859 C312.89579044 41.79612912 312.90793688 43.68843951 312.92202759 45.58073425 C312.95340669 50.72343006 312.95274989 55.86565859 312.9445219 61.00842619 C312.94036675 65.30025927 312.95132756 69.59200009 312.96216607 73.88381732 C312.98732461 84.00888252 312.98616983 94.13371437 312.96875 104.25878906 C312.9512306 114.70638607 312.97760809 125.15321976 313.02571654 135.6007036 C313.06547692 144.56816 313.07813076 153.53537525 313.06900239 162.50291502 C313.06381528 167.85987043 313.06890478 173.21631385 313.09996796 178.5731926 C313.12798921 183.61158293 313.12214631 188.64881756 313.09025192 193.68717384 C313.08419347 195.53587315 313.09006553 197.38465595 313.10876083 199.23327065 C313.23928251 213.17854351 313.23928251 213.17854351 310.68614388 217.25856781 C307.43222501 220.16725724 304.33560827 221.57813166 299.91796875 221.6875 C298.49629395 221.74454102 298.49629395 221.74454102 297.04589844 221.80273438 C296.10907227 221.81111328 295.17224609 221.81949219 294.20703125 221.828125 C293.37075195 221.85197266 292.53447266 221.87582031 291.67285156 221.90039062 C289.97699621 221.94696178 288.28091215 221.98570973 286.5847168 222.01757812 C270.6637114 222.36776964 255.05994734 224.71833335 239.32696533 226.99017334 C233.63542792 227.79919649 227.94135087 228.407603 222.20703125 228.828125 C222.20703125 229.488125 222.20703125 230.148125 222.20703125 230.828125 C221.60979248 230.94816895 221.01255371 231.06821289 220.3972168 231.19189453 C207.66406486 233.78016119 195.26541823 236.75556054 182.95361328 240.91113281 C179.72196066 241.9900739 176.47862474 243.02987745 173.234375 244.0703125 C170.78751766 244.86383516 168.34090198 245.65810343 165.89453125 246.453125 C164.14897949 247.0114502 164.14897949 247.0114502 162.36816406 247.58105469 C156.72162754 249.44009876 151.93113402 251.20013758 147.20703125 254.828125 C140.43104764 258.86488119 132.91963632 258.65447554 125.20703125 257.828125 C120.42476549 256.08005201 116.10718109 253.69748993 111.64453125 251.265625 C103.6741032 247.11668926 95.27612299 244.26845368 86.76953125 241.453125 C86.11814178 241.2363913 85.46675232 241.01965759 84.79562378 240.7963562 C78.40149833 238.6797974 72.04749188 236.64225208 65.44335938 235.29858398 C62.76927378 234.73603344 60.13192044 234.06312587 57.484375 233.38671875 C39.31768311 228.81996158 21.07009852 225.5232992 2.45703125 223.515625 C1.28550003 223.38908035 1.28550003 223.38908035 0.09030151 223.25997925 C-11.20334422 222.06785349 -22.44740061 221.31347992 -33.81542969 221.5065918 C-34.77481445 221.50183838 -35.73419922 221.49708496 -36.72265625 221.4921875 C-37.94831299 221.51466553 -37.94831299 221.51466553 -39.19873047 221.53759766 C-43.6023148 220.33330478 -46.31507741 218.76515841 -48.79296875 214.828125 C-49.89480122 208.77090445 -49.75033279 202.74097069 -49.69873047 196.60131836 C-49.70821894 194.71692753 -49.72068437 192.83254969 -49.73590088 190.94819641 C-49.76779824 185.83648465 -49.75544755 180.7257624 -49.73324728 175.61403346 C-49.7155202 170.26451759 -49.73196181 164.91508623 -49.74295044 159.56556702 C-49.75568331 150.58318879 -49.73890757 141.60121353 -49.70556641 132.61889648 C-49.667459 122.23254975 -49.67981903 111.84716461 -49.71835124 101.46084112 C-49.75011019 92.5434346 -49.75460357 83.62631765 -49.73628056 74.70887285 C-49.72536482 69.38275516 -49.72391908 64.05708959 -49.74703598 58.7310009 C-49.76724818 53.72453571 -49.75324994 48.71931131 -49.71277618 43.71298027 C-49.70351559 41.87516847 -49.70618734 40.03725234 -49.72161484 38.19948196 C-49.74073288 35.69093781 -49.71678733 33.18637512 -49.68185425 30.67808533 C-49.6974693 29.94968018 -49.71308435 29.22127503 -49.72917259 28.470797 C-49.65016397 25.54894787 -49.35315504 23.41991444 -47.30711198 21.258443 C-43.06382026 18.07580019 -39.75390633 17.16986607 -34.35546875 17.015625 C-33.11925781 16.96792969 -31.88304687 16.92023438 -30.609375 16.87109375 C-29.21525391 16.84982422 -29.21525391 16.84982422 -27.79296875 16.828125 C-27.7671875 15.86390625 -27.74140625 14.8996875 -27.71484375 13.90625 C-27.658125 12.64296875 -27.60140625 11.3796875 -27.54296875 10.078125 C-27.4965625 8.82515625 -27.45015625 7.5721875 -27.40234375 6.28125 C-26.79296875 2.828125 -26.79296875 2.828125 -25.15625 0.3984375 C-18.56872999 -3.97872455 -7.44920515 -1.20616815 0 0 Z " fill="#050405" transform="translate(378.79296875,303.171875)"/>
<path d="M0 0 C0.96421875 -0.03673828 1.9284375 -0.07347656 2.921875 -0.11132812 C9.19441392 -0.14967925 12.89233883 0.94004627 17.79785156 4.87915039 C21.25479125 8.88648044 20.58226607 14.63219915 20.52734375 19.6484375 C20.02898539 24.88470981 17.63618405 27.36584191 13.79296875 30.68359375 C9.30927776 33.59100853 4.36088805 33.18305122 -0.8125 33.125 C-1.79283203 33.14884766 -2.77316406 33.17269531 -3.78320312 33.19726562 C-11.02410156 33.18251838 -11.02410156 33.18251838 -14.72265625 30.0234375 C-15.39167969 29.21132812 -16.06070313 28.39921875 -16.75 27.5625 C-20.20426142 27.49568991 -20.20426142 27.49568991 -23.75 28.5625 C-24.884375 28.76875 -26.01875 28.975 -27.1875 29.1875 C-31.98063308 31.03748119 -35.11040383 34.00993765 -38.75 37.5625 C-39.57757813 38.34367187 -39.57757813 38.34367187 -40.421875 39.140625 C-42.22566662 41.07174309 -42.83100537 43.09270192 -43.75 45.5625 C-44.25660156 46.43648437 -44.76320313 47.31046875 -45.28515625 48.2109375 C-47.02057356 52.18157231 -47.2452554 55.61865817 -47.1875 59.875 C-47.18065186 60.6597168 -47.17380371 61.44443359 -47.16674805 62.25292969 C-46.94135371 70.68453507 -45.15715573 78.51187908 -42.75 86.5625 C-42.41097656 87.72007812 -42.07195312 88.87765625 -41.72265625 90.0703125 C-38.56385748 99.76029308 -33.78354513 108.53902277 -28.89990234 117.45068359 C-27.92928566 119.23323865 -26.98677297 121.03105407 -26.05078125 122.83203125 C-15.99741454 142.08491709 1.28496461 162.89280537 22.53320312 169.77880859 C25.75881048 170.76506071 28.99311853 171.68383187 32.25 172.5625 C32.89839844 172.76488281 33.54679687 172.96726562 34.21484375 173.17578125 C45.73572681 175.36497016 57.47629998 173.28155104 68.65234375 170.4375 C72.25 169.5625 72.25 169.5625 75.25 169.5625 C75.58 168.5725 75.91 167.5825 76.25 166.5625 C78.359375 165.31640625 78.359375 165.31640625 81 164.125 C84.86904301 162.30102258 87.9683343 160.33140543 91.25 157.5625 C91.91 157.5625 92.57 157.5625 93.25 157.5625 C93.25 156.9025 93.25 156.2425 93.25 155.5625 C94.29335729 154.62040975 95.38854727 153.73569815 96.5 152.875 C114.10184018 137.79660947 126.75665945 113.56770964 133.25 91.5625 C133.91666667 89.5625 134.58333333 87.5625 135.25 85.5625 C135.91 85.5625 136.57 85.5625 137.25 85.5625 C137.31058594 84.88703125 137.37117187 84.2115625 137.43359375 83.515625 C137.51738281 82.62359375 137.60117187 81.7315625 137.6875 80.8125 C137.80931641 79.48992187 137.80931641 79.48992187 137.93359375 78.140625 C138.25 75.5625 138.25 75.5625 138.75268555 73.70458984 C140.79178704 64.92153805 141.06272842 51.8517932 137.25 43.625 C134.34571796 39.0926838 130.5660254 35.72330671 126.25 32.5625 C125.59773437 32.05460937 124.94546875 31.54671875 124.2734375 31.0234375 C120.057198 28.01663722 116.5642682 26.78067158 111.35546875 27.05859375 C107.7665216 27.917544 105.893748 30.04171702 103.25 32.5625 C99.01447138 34.01836148 94.78664813 33.62280348 90.375 33.4375 C89.58480469 33.4271875 88.79460937 33.416875 87.98046875 33.40625 C82.08231183 33.15108847 79.28874352 31.92236686 75.25 27.5625 C72.9245674 23.52995792 72.9209857 19.66106985 72.875 15.0625 C72.84664062 13.7734375 72.81828125 12.484375 72.7890625 11.15625 C73.32005507 7.01630794 74.32764846 5.47430153 77.25 2.5625 C81.68362922 -0.39325282 85.84401693 0.15535963 91.0625 0.125 C92.04798828 0.09212891 93.03347656 0.05925781 94.04882812 0.02539062 C102.19495868 -0.03478898 102.19495868 -0.03478898 105.82421875 2.90234375 C108.25 5.5625 108.25 5.5625 110.25 8.5625 C112.9571715 9.18667684 112.9571715 9.18667684 116.125 9.4375 C123.09499538 10.33885949 128.92481531 12.57655696 135.25 15.5625 C135.25 16.2225 135.25 16.8825 135.25 17.5625 C136.0028125 17.65402344 136.755625 17.74554688 137.53125 17.83984375 C143.89966198 19.53259693 147.95638649 27.20781019 151.19140625 32.6171875 C152.77666732 35.53032408 154.0276633 38.47755499 155.25 41.5625 C155.59289062 42.32433594 155.93578125 43.08617187 156.2890625 43.87109375 C163.86601428 65.09271886 154.27057015 92.93690865 145.265625 112.3046875 C144.5224054 113.95692184 143.83151625 115.63296929 143.171875 117.3203125 C138.38407816 129.54515376 131.19470782 140.17209819 123.25 150.5625 C122.58613281 151.44421875 121.92226563 152.3259375 121.23828125 153.234375 C113.48882945 163.14679764 104.23920352 171.84209576 94.0390625 179.19921875 C87.39875943 184.25918769 82.87903382 190.36850161 78.38671875 197.33203125 C72.99983767 205.47636517 67.26560914 213.8370649 59.25 219.5625 C58.26 219.5625 57.27 219.5625 56.25 219.5625 C56.31945153 225.46703097 56.40768872 231.37089211 56.51245117 237.27490234 C56.54546181 239.27840671 56.57356588 241.28199875 56.59643555 243.28564453 C56.79825941 260.50508471 57.59157217 277.639006 70 291 C74.24423847 294.92592058 78.99659575 297.25743487 84.25 299.5625 C84.83394531 299.92730469 85.41789063 300.29210937 86.01953125 300.66796875 C93.84051405 303.80458007 105.47218675 302.31664427 113.1875 299.5625 C125.66573284 293.88914728 132.75557221 286.91442333 138.25 274.5625 C139.23696328 271.49424178 139.80819118 268.76561393 140.25 265.5625 C139.50234375 265.18738281 138.7546875 264.81226563 137.984375 264.42578125 C128.49488407 259.49472379 128.49488407 259.49472379 125.25 254.5625 C124.569375 253.9025 123.88875 253.2425 123.1875 252.5625 C117.20745312 246.38954838 115.19325247 237.4109582 114.875 229 C115.36866501 218.06038344 119.49950646 209.13162362 127.35546875 201.5234375 C135.42243482 194.81286395 145.38830988 190.92867225 155.91796875 191.02734375 C163.01172142 192.16666862 169.14996256 195.9166862 175.25 199.5625 C176.26320313 200.16320312 177.27640625 200.76390625 178.3203125 201.3828125 C185.73074068 206.49268984 188.41798532 212.89281435 190.25 221.5625 C191.6326175 233.50451979 189.16614079 242.80541731 182.00390625 252.375 C175.49357544 260.49478898 168.15796677 264.74148168 158.25 267.5625 C158.394375 268.7175 158.53875 269.8725 158.6875 271.0625 C158.64942572 283.13204816 150.44355824 295.35561891 142.25 303.5625 C136.55900792 308.65131557 130.75663272 313.68584182 123.25 315.5625 C122.92 316.2225 122.59 316.8825 122.25 317.5625 C120.21875 318.16015625 120.21875 318.16015625 117.75 318.625 C114.71226779 319.02114843 114.71226779 319.02114843 112.25 320.5625 C94.82998834 322.92493994 78.86288023 320.68761217 64.25 310.5625 C57.25368525 305.10349208 51.84877489 299.1445827 47.25 291.5625 C46.78851563 290.80582031 46.32703125 290.04914063 45.8515625 289.26953125 C38.55965535 276.07780831 37.29657419 260.96604024 37.07421875 246.19140625 C37.062164 245.45545731 37.05010925 244.71950836 37.03768921 243.96125793 C36.98924787 240.90293823 36.94163435 237.84505321 36.92407227 234.78637695 C36.90862669 232.52490704 36.86852123 230.26497065 36.82421875 228.00390625 C36.82612717 227.31535049 36.82803558 226.62679474 36.83000183 225.91737366 C36.74449991 222.5737135 36.47376824 220.84510411 34.37158203 218.19018555 C32.24730002 216.49205714 32.24730002 216.49205714 29.73046875 215.078125 C22.27461468 210.52242204 17.50946729 201.15320126 12.83911133 193.91699219 C8.28184454 186.90180039 3.42258195 181.65730149 -3.375 176.8125 C-14.26416322 168.82397066 -23.47710753 160.32046676 -31.75 149.5625 C-32.37390625 148.76972656 -32.9978125 147.97695313 -33.640625 147.16015625 C-37.75 141.85061332 -37.75 141.85061332 -37.75 139.5625 C-38.41 139.5625 -39.07 139.5625 -39.75 139.5625 C-42.05503461 135.66778635 -44.12708513 131.87025463 -45.84765625 127.67578125 C-47.0095101 124.95472959 -48.29365408 122.2978157 -49.5625 119.625 C-55.28085378 107.20921946 -59.48102475 94.89698645 -62.30810547 81.52539062 C-62.75768975 79.52834221 -63.29407191 77.567516 -63.8359375 75.59375 C-67.3471485 61.63056205 -65.00312482 44.67225768 -58.0625 32.125 C-49.72288212 19.67843463 -38.97653754 13.42087944 -24.75 9.5625 C-23.39976452 9.38389742 -22.04534859 9.23121649 -20.6875 9.125 C-17.56180981 8.8775263 -17.56180981 8.8775263 -16.0625 6.1875 C-15.629375 5.32125 -15.19625 4.455 -14.75 3.5625 C-10.28175692 -0.54855414 -5.78807168 0.01142383 0 0 Z " fill="#090809" transform="translate(447.75,201.4375)"/>
<path d="M0 0 C8.25 0 16.5 0 25 0 C26.171875 3.09244792 27.34375 6.18489583 28.515625 9.27734375 C31.20772565 16.15684558 34.36950229 22.81026726 37.60375977 29.44799805 C41.84587326 38.17255987 45.69123861 46.90202373 48.94140625 56.04296875 C49.89150763 58.88266848 49.89150763 58.88266848 51 61 C51.66 61 52.32 61 53 61 C53.19335938 60.22914063 53.38671875 59.45828125 53.5859375 58.6640625 C53.84632813 57.66117188 54.10671875 56.65828125 54.375 55.625 C54.63023437 54.62726562 54.88546875 53.62953125 55.1484375 52.6015625 C56 50 56 50 58 48 C58.70790004 46.11226657 59.41153995 44.22278767 60.08984375 42.32421875 C61.04267024 39.89103523 62.16899124 37.63000272 63.375 35.3125 C65.91798714 30.35634789 67.8591076 25.25585804 69.80859375 20.04296875 C71.05528515 16.8587963 72.50133199 13.8742367 74.08984375 10.8515625 C75.10041837 8.79571542 75.90086328 6.71340041 76.6875 4.5625 C78 1 78 1 79 0 C80.78071246 -0.08726223 82.5648314 -0.10699041 84.34765625 -0.09765625 C85.42724609 -0.09443359 86.50683594 -0.09121094 87.61914062 -0.08789062 C89.32360352 -0.07532227 89.32360352 -0.07532227 91.0625 -0.0625 C92.77276367 -0.05573242 92.77276367 -0.05573242 94.51757812 -0.04882812 C97.34510351 -0.03699747 100.1725264 -0.0205141 103 0 C104.35535244 34.01999985 105.31559867 67.95041055 105 102 C98.4 102 91.8 102 85 102 C83.88387779 79.67755586 83.46175204 57.34375075 83 35 C80.61891419 38.88825809 78.73393104 42.7925286 77 47 C76.15999457 48.99527216 75.31872282 50.99001142 74.4765625 52.984375 C73.05078171 56.36664387 71.62539309 59.74906478 70.203125 63.1328125 C67.56265418 69.39116599 64.85047126 75.60375675 61.99365234 81.76660156 C60.91459532 84.09503446 60.91459532 84.09503446 60 87 C54.39 87 48.78 87 43 87 C41.948125 84.40125 40.89625 81.8025 39.8125 79.125 C37.44362724 73.32002076 34.93004497 67.67294143 32.0390625 62.10546875 C30.79767026 59.59001605 29.8837954 56.9885506 28.95703125 54.34375 C27.35185361 50.41270272 25.33620004 46.66630093 23.33642578 42.92285156 C21.59941562 39.58294892 21 37.86673724 21 34 C20.34 34 19.68 34 19 34 C19.00580078 34.919021 19.01160156 35.83804199 19.01757812 36.78491211 C19.07413987 50.38159454 18.78332838 63.96939295 18.5 77.5625 C18.45166607 79.94205411 18.40348789 82.32161139 18.35546875 84.70117188 C18.23877195 90.46748597 18.11997724 96.23375327 18 102 C11.4 102 4.8 102 -2 102 C-2.27839089 67.943514 -1.47021 34.02485993 0 0 Z " fill="#090809" transform="translate(178,598)"/>
<path d="M0 0 C6.27 0 12.54 0 19 0 C19 34.65 19 69.3 19 105 C13.06 105 7.12 105 1 105 C1 102.03 1 99.06 1 96 C0.35933594 96.54269531 -0.28132813 97.08539062 -0.94140625 97.64453125 C-10.85566557 105.84485006 -18.02885226 108.20882948 -31 107 C-38.60789452 105.21642738 -45.10867893 101.35236098 -49.46875 94.7890625 C-56.7368939 82.06981067 -59.19081324 68.51803054 -56.1953125 54.13671875 C-52.98434769 44.00557117 -47.48890459 36.07327841 -38.0625 30.875 C-33.01418011 28.87135891 -28.18310677 28.52211109 -22.8125 28.4375 C-22.06427979 28.42251465 -21.31605957 28.4075293 -20.54516602 28.39208984 C-12.17033162 28.54914686 -6.85669916 32.42886723 0 37 C0 24.79 0 12.58 0 0 Z " fill="#060506" transform="translate(434,595)"/>
<path d="M0 0 C6.66907972 5.05064197 12.41801698 12.01969522 14.80078125 20.12109375 C14.83740514 22.12075839 14.8426131 24.12153127 14.80078125 26.12109375 C-4.23117256 27.6043995 -4.23117256 27.6043995 -8.578125 24.328125 C-9.88671875 21.99609375 -9.88671875 21.99609375 -11.00390625 19.5234375 C-12.87155139 15.76983697 -15.46405083 14.13425299 -19.078125 12.1484375 C-27.12686317 9.49910316 -37.44158147 9.80577062 -45.19921875 13.12109375 C-52.31744111 17.78475667 -57.28709252 23.77978948 -59.19921875 32.12109375 C-60.57923189 45.61668941 -59.88608201 57.78655521 -51.86328125 69.109375 C-47.38116936 74.52789055 -42.18806615 77.19486096 -35.19921875 78.12109375 C-34.33683594 78.25128906 -33.47445312 78.38148438 -32.5859375 78.515625 C-23.89205201 79.20972411 -17.86125297 75.95666016 -10.47265625 71.87109375 C-7.19921875 70.12109375 -7.19921875 70.12109375 -5.19921875 70.12109375 C-5.19921875 65.83109375 -5.19921875 61.54109375 -5.19921875 57.12109375 C-13.77921875 57.12109375 -22.35921875 57.12109375 -31.19921875 57.12109375 C-31.19921875 51.51109375 -31.19921875 45.90109375 -31.19921875 40.12109375 C-16.34921875 40.12109375 -1.49921875 40.12109375 13.80078125 40.12109375 C14.21328125 46.37046875 14.62578125 52.61984375 15.05078125 59.05859375 C15.29296387 61.98980103 15.29296387 61.98980103 15.54003906 64.98022461 C16.26369609 77.25377577 16.26369609 77.25377577 12.35351562 82.24487305 C9.27478662 84.58921091 6.25856849 86.39465053 2.80078125 88.12109375 C1.52842862 88.89856073 0.25723319 89.67793234 -1.01171875 90.4609375 C-8.41586359 94.17208363 -14.91681899 96.58612906 -23.19921875 97.12109375 C-24.26148682 97.19263672 -24.26148682 97.19263672 -25.34521484 97.265625 C-38.94939109 98.06235567 -50.87290379 97.15016289 -61.63671875 87.80859375 C-63.18486837 86.27315472 -64.70756774 84.71147658 -66.19921875 83.12109375 C-66.86824219 82.4353125 -67.53726563 81.74953125 -68.2265625 81.04296875 C-79.62547773 68.80058199 -82.04241987 52.92635698 -81.52734375 36.75390625 C-80.73605192 22.56225923 -74.03167179 11.97022893 -64.19921875 2.12109375 C-45.57400089 -13.28457918 -19.73989898 -12.15768612 0 0 Z " fill="#090809" transform="translate(609.19921875,604.87890625)"/>
<path d="M0 0 C10.63498247 11.2002276 9.8125 21.87930432 9.8125 37.375 C-7.6775 37.375 -25.1675 37.375 -43.1875 37.375 C-39.68227371 45.51738485 -39.68227371 45.51738485 -34.1875 51.375 C-28.8353613 53.08114028 -22.30277998 53.49075631 -16.984375 51.5859375 C-13.87430528 49.8740924 -12.16643008 48.34339512 -10.1875 45.375 C-3.36762971 45.80800764 1.72893021 47.28287824 7.8125 50.375 C7.48797612 55.72964402 4.47465201 58.77883271 0.8125 62.375 C-8.25298887 70.25435014 -17.57175126 71.16106012 -29.16650391 70.53466797 C-38.30282267 69.81285685 -44.54531508 66.57437259 -51.1875 60.375 C-51.74179687 59.88515625 -52.29609375 59.3953125 -52.8671875 58.890625 C-60.62207135 51.09556041 -63.75889933 39.76923312 -63.8125 29.0625 C-63.6623727 22.18840194 -62.68379409 16.40122118 -59.1875 10.375 C-58.75179688 9.58738281 -58.31609375 8.79976562 -57.8671875 7.98828125 C-53.17766489 0.23647475 -46.81083735 -4.75055422 -38.1875 -7.625 C-24.66582408 -10.24209856 -10.4100302 -9.5073154 0 0 Z " fill="#090809" transform="translate(358.1875,631.625)"/>
<path d="M0 0 C3.14581423 -0.02888514 6.29159469 -0.04675923 9.4375 -0.0625 C10.33533203 -0.07087891 11.23316406 -0.07925781 12.15820312 -0.08789062 C13.01220703 -0.09111328 13.86621094 -0.09433594 14.74609375 -0.09765625 C15.93223267 -0.10551147 15.93223267 -0.10551147 17.14233398 -0.11352539 C19 0 19 0 20 1 C20.1019454 2.59999192 20.13569179 4.20439258 20.1418457 5.80761719 C20.14888016 6.8324823 20.15591461 7.85734741 20.16316223 8.91326904 C20.16732651 10.02985901 20.17149078 11.14644897 20.17578125 12.296875 C20.19898299 14.64063395 20.22310047 16.98438397 20.24804688 19.328125 C20.28316285 23.03912279 20.31249925 26.74979382 20.32592773 30.4609375 C20.34139261 34.03165736 20.38160197 37.60141013 20.42578125 41.171875 C20.42387283 42.28036804 20.42196442 43.38886108 20.41999817 44.53094482 C20.45409266 50.67341697 20.45409266 50.67341697 23.03588867 56.11425781 C23.68404541 56.73655273 24.33220215 57.35884766 25 58 C25 58.66 25 59.32 25 60 C33.08717223 60.38852963 37.91436099 59.91907504 44.61987305 55.12817383 C48.22797611 50.38608495 47.7275819 45.94571237 47.70703125 40.13671875 C47.72215256 38.98959915 47.73727386 37.84247955 47.75285339 36.66059875 C47.79578417 33.00270004 47.80457418 29.34562572 47.8125 25.6875 C47.83563992 23.20505612 47.86100418 20.72263192 47.88867188 18.24023438 C47.9515783 12.16008319 47.98387149 6.08044797 48 0 C54.6 0 61.2 0 68 0 C68 25.08 68 50.16 68 76 C61.73 76 55.46 76 49 76 C49 74.02 49 72.04 49 70 C48.175 70.4125 47.35 70.825 46.5 71.25 C45.345 71.8275 44.19 72.405 43 73 C42.32710937 73.34804688 41.65421875 73.69609375 40.9609375 74.0546875 C40.27257812 74.40789062 39.58421875 74.76109375 38.875 75.125 C37.91207031 75.62386719 37.91207031 75.62386719 36.9296875 76.1328125 C28.98634902 79.70249093 20.88737518 77.82916718 13 75 C7.17710158 71.5822118 4.00814292 65.77239304 1.75 59.5625 C0.08818059 51.66885781 -0.1399605 43.88561682 -0.09765625 35.83984375 C-0.0962413 34.80936417 -0.09482635 33.77888458 -0.09336853 32.71717834 C-0.08781447 29.45725481 -0.0752707 26.19740243 -0.0625 22.9375 C-0.05747906 20.71419371 -0.05291719 18.49088633 -0.04882812 16.26757812 C-0.03786013 10.8450282 -0.0211684 5.42251919 0 0 Z " fill="#0C0B0C" transform="translate(772,624)"/>
<path d="M0 0 C5.94 0 11.88 0 18 0 C18.02255176 9.89189783 18.04091552 19.7837787 18.05181217 29.67569637 C18.05704082 34.2684264 18.06413812 38.861138 18.07543945 43.45385742 C18.086269 47.88233688 18.09227698 52.31079856 18.09487724 56.73929024 C18.09673137 58.43265628 18.10035175 60.12602129 18.10573006 61.81937981 C18.1129414 64.18291232 18.1139909 66.54637045 18.11352539 68.90991211 C18.11712067 69.61697296 18.12071594 70.32403381 18.12442017 71.05252075 C18.11405216 75.88594784 18.11405216 75.88594784 17 77 C14.30345146 77.07319621 11.63308542 77.09242537 8.9375 77.0625 C8.17888672 77.05798828 7.42027344 77.05347656 6.63867188 77.04882812 C4.75908129 77.0370068 2.87953101 77.01907078 1 77 C1 74.03 1 71.06 1 68 C0.05640625 68.70576172 0.05640625 68.70576172 -0.90625 69.42578125 C-10.21448073 76.196678 -17.27237038 79.36151901 -29 78 C-35.68891902 76.26046688 -40.82402429 72.4742065 -45 67 C-52.17259747 53.999955 -50.24259758 37.5096251 -50.125 23.125 C-50.11494688 20.97266043 -50.10582517 18.8203163 -50.09765625 16.66796875 C-50.07583502 11.44519792 -50.04143443 6.22265054 -50 1 C-43.73 1 -37.46 1 -31 1 C-30.505 27.235 -30.505 27.235 -30 54 C-29.34 54 -28.68 54 -28 54 C-25 57.46153846 -25 57.46153846 -25 60 C-22.91673869 60.02709444 -20.83337559 60.04643873 -18.75 60.0625 C-17.00976562 60.07990234 -17.00976562 60.07990234 -15.234375 60.09765625 C-10.38205829 59.9511491 -8.79009481 59.82771837 -5.375 56.25 C-2.07819865 52.26024041 -0.76257495 48.16931786 -0.68115234 43.02612305 C-0.66128265 42.06550461 -0.64141296 41.10488617 -0.62094116 40.11515808 C-0.60938995 39.0910231 -0.59783875 38.06688812 -0.5859375 37.01171875 C-0.56657135 35.95338333 -0.5472052 34.89504791 -0.5272522 33.80464172 C-0.46758752 30.43234252 -0.42112307 27.06000894 -0.375 23.6875 C-0.33680819 21.39777177 -0.29775576 19.10805772 -0.2578125 16.81835938 C-0.16189656 11.21235509 -0.07781672 5.60628355 0 0 Z " fill="#070607" transform="translate(686,624)"/>
<path d="M0 0 C0 6.27 0 12.54 0 19 C-8.25 19.75 -8.25 19.75 -10.82910156 19.95605469 C-14.27576474 20.31688489 -16.51485479 20.67135324 -19.421875 22.640625 C-23.47501786 28.70027423 -23.32827918 35.48574471 -23.4140625 42.52734375 C-23.43342865 43.51626114 -23.4527948 44.50517853 -23.4727478 45.52406311 C-23.53220622 48.66178951 -23.57879356 51.79955328 -23.625 54.9375 C-23.66321084 57.07358311 -23.70226436 59.20965133 -23.7421875 61.34570312 C-23.83787972 66.56366919 -23.92302455 71.78172605 -24 77 C-27.14581423 77.02888514 -30.29159469 77.04675923 -33.4375 77.0625 C-34.33533203 77.07087891 -35.23316406 77.07925781 -36.15820312 77.08789062 C-37.43920898 77.09272461 -37.43920898 77.09272461 -38.74609375 77.09765625 C-39.53685303 77.10289307 -40.3276123 77.10812988 -41.14233398 77.11352539 C-43 77 -43 77 -44 76 C-44.09492722 73.65746218 -44.12559791 71.34453896 -44.11352539 69.00170898 C-44.11367142 68.27004517 -44.11381744 67.53838135 -44.1139679 66.7845459 C-44.11326867 64.35503216 -44.10547585 61.92559417 -44.09765625 59.49609375 C-44.0957921 57.81600486 -44.09436819 56.13591543 -44.09336853 54.45582581 C-44.08954307 50.02526357 -44.07971256 45.5947339 -44.06866455 41.16418457 C-44.05845103 36.64657024 -44.05387104 32.12895066 -44.04882812 27.61132812 C-44.03809031 18.74086877 -44.02049329 9.87044219 -44 1 C-37.4 1 -30.8 1 -24 1 C-24 3.31 -24 5.62 -24 8 C-23.38511719 7.50628906 -22.77023437 7.01257813 -22.13671875 6.50390625 C-21.32847656 5.86324219 -20.52023437 5.22257813 -19.6875 4.5625 C-18.88699219 3.92441406 -18.08648438 3.28632812 -17.26171875 2.62890625 C-12.02498862 -1.14262477 -6.19942231 -0.06666045 0 0 Z " fill="#0C0C0D" transform="translate(763,624)"/>
<path d="M0 0 C6.6 0 13.2 0 20 0 C20.02255209 9.63113018 20.0409157 19.26224295 20.05181217 28.89339352 C20.05704074 33.36505549 20.06413789 37.83669853 20.07543945 42.30834961 C20.08626929 46.62011973 20.09227704 50.93187159 20.09487724 55.24365425 C20.09673132 56.89236298 20.1003516 58.54107066 20.10573006 60.18977165 C20.11294178 62.49103872 20.11399089 64.7922294 20.11352539 67.09350586 C20.115746 68.4058873 20.11796661 69.71826874 20.12025452 71.07041931 C20 74 20 74 19 75 C12.73 75 6.46 75 0 75 C0 50.25 0 25.5 0 0 Z " fill="#0B0B0C" transform="translate(469,625)"/>
<path d="M0 0 C3.9890883 3.44080452 5.59255815 6.00323835 6.08203125 11.30273438 C6.10971701 13.39762335 6.09969094 15.49330212 6.0546875 17.58789062 C6.09013672 18.63396484 6.12558594 19.68003906 6.16210938 20.7578125 C6.12873567 26.65754266 5.45648915 30.00131888 1.24609375 34.27929688 C-3.82291249 38.70467541 -8.12114826 41.21636325 -14.9375 40.85351562 C-19.07186913 40.42181443 -21.72049027 40.02126349 -24.515625 36.72460938 C-30.78594014 27.71292458 -31.82817284 19.5278701 -30.8828125 8.65039062 C-29.35505561 3.20001468 -26.24427113 -0.75140601 -21.8828125 -4.34960938 C-13.99363308 -7.88613808 -6.45365154 -4.62600956 0 0 Z " fill="#F8F8F8" transform="translate(428.8828125,645.349609375)"/>
<path d="M0 0 C6.72137576 0.75886501 11.78037292 4.34287292 16.5 9.0625 C18.60374212 14.22623065 18.83819651 18.95303034 17.875 24.4375 C15.53100312 29.17842272 12.20906391 32.4665691 7.875 35.4375 C2.57231394 37.05776518 -2.89292392 37.07523602 -8.1875 35.5625 C-13.1599632 31.96539896 -17.17468968 27.09439034 -18.7421875 21.0625 C-19.09127929 15.14847444 -16.84964561 10.90123978 -13.125 6.4375 C-8.97803816 2.16326567 -5.74857815 0.80480094 0 0 Z " fill="#F7F7F7" transform="translate(600.125,412.5625)"/>
<path d="M0 0 C3.8133455 2.10510475 6.55127904 4.38308189 9 8 C10.32811908 13.57810015 9.92577368 18.94928065 7.25 24.0625 C4.02662799 28.27079123 1.32662607 30.55644986 -4.05078125 31.2734375 C-8.16786887 31.45831536 -11.0700472 31.45480562 -14.375 28.8125 C-19.37931636 23.45073247 -20.56263329 20.04637623 -20.35546875 12.7265625 C-19.7080721 7.76081681 -17.66734201 4.51576546 -13.9375 1.125 C-9.24934266 -1.59715587 -5.08233247 -1.51117867 0 0 Z " fill="#181718" transform="translate(196,745)"/>
<path d="M0 0 C3.8053125 -0.12375 3.8053125 -0.12375 7.6875 -0.25 C8.87218872 -0.30462402 8.87218872 -0.30462402 10.08081055 -0.36035156 C13.90260839 -0.42027101 15.63709783 -0.23202728 18.95703125 1.890625 C21.54423269 4.56192285 21.94647032 5.4539973 22.3125 9.1875 C22.00452075 12.94484686 21.77387991 13.60016353 19.75 16.4375 C17.65044788 19.69530802 17.65044788 19.69530802 18.625 22.11328125 C19.71438647 24.25052477 19.71438647 24.25052477 20.984375 26.203125 C22 28 22 28 22 31 C19.8125 31.375 19.8125 31.375 17 31 C12.28571429 26.28571429 12.28571429 26.28571429 11.5 22.75 C11.335 22.1725 11.17 21.595 11 21 C9.35591344 20.27944354 7.6885355 19.60915521 6 19 C6.01160156 19.78246094 6.02320313 20.56492187 6.03515625 21.37109375 C6.04417969 22.38300781 6.05320312 23.39492188 6.0625 24.4375 C6.07410156 25.44683594 6.08570313 26.45617187 6.09765625 27.49609375 C6 30 6 30 5 31 C3.35 31 1.7 31 0 31 C0 20.77 0 10.54 0 0 Z " fill="#1D1B1D" transform="translate(642,745)"/>
<path d="M0 0 C2.83105469 -0.18261719 2.83105469 -0.18261719 6 0 C8.0855769 2.25435191 9.61429063 4.2055632 11.25 6.75 C11.683125 7.38421875 12.11625 8.0184375 12.5625 8.671875 C14.62564672 11.72838866 16.3417136 14.6834272 18 18 C18.33 12.06 18.66 6.12 19 0 C20.98 0 22.96 0 25 0 C25 10.23 25 20.46 25 31 C23.35 31 21.7 31 20 31 C17.9375 28.83984375 17.9375 28.83984375 16 25.9375 C15.360625 24.99777344 14.72125 24.05804687 14.0625 23.08984375 C13.381875 22.07019531 12.70125 21.05054688 12 20 C10.35 17.69 8.7 15.38 7 13 C6.67 18.94 6.34 24.88 6 31 C4.35 31 2.7 31 1 31 C0 30 0 30 -0.11352539 27.13256836 C-0.10828857 25.88096924 -0.10305176 24.62937012 -0.09765625 23.33984375 C-0.0962413 22.67537735 -0.09482635 22.01091095 -0.09336853 21.3263092 C-0.08775518 19.19666101 -0.07520054 17.06711661 -0.0625 14.9375 C-0.05748671 13.49674631 -0.05292351 12.05599097 -0.04882812 10.61523438 C-0.03778145 7.07678898 -0.02050792 3.53840461 0 0 Z " fill="#232123" transform="translate(718,745)"/>
<path d="M0 0 C1.98 0 3.96 0 6 0 C6 10.56 6 21.12 6 32 C4.02 32 2.04 32 0 32 C0 27.71 0 23.42 0 19 C-3.96 19 -7.92 19 -12 19 C-12 23.29 -12 27.58 -12 32 C-14.31 32 -16.62 32 -19 32 C-19 21.77 -19 11.54 -19 1 C-17.02 1 -15.04 1 -13 1 C-13 4.63 -13 8.26 -13 12 C-8.71 12 -4.42 12 0 12 C0 8.04 0 4.08 0 0 Z " fill="#292729" transform="translate(404,744)"/>
<path d="M0 0 C6 0 6 0 7.78271484 1.52880859 C8.25402832 2.22828613 8.7253418 2.92776367 9.2109375 3.6484375 C9.73300781 4.40640625 10.25507812 5.164375 10.79296875 5.9453125 C11.31503906 6.74710938 11.83710937 7.54890625 12.375 8.375 C12.92027344 9.1690625 13.46554687 9.963125 14.02734375 10.78125 C18 16.65560385 18 16.65560385 18 19 C18.66 19 19.32 19 20 19 C20 12.73 20 6.46 20 0 C21.65 0 23.3 0 25 0 C25 10.23 25 20.46 25 31 C19 30 19 30 16.515625 27.234375 C15.74166749 26.08532545 14.98679566 24.92322515 14.25 23.75 C13.86457031 23.17636719 13.47914063 22.60273437 13.08203125 22.01171875 C10.96504589 18.79595206 9.28245765 15.62908227 8 12 C7.34 12 6.68 12 6 12 C6 18.27 6 24.54 6 31 C4.02 31 2.04 31 0 31 C0 20.77 0 10.54 0 0 Z " fill="#1D1B1D" transform="translate(766,745)"/>
<path d="M0 0 C5 0 5 0 7.0625 1.6875 C18 14.74193548 18 14.74193548 18 19 C18.66 19 19.32 19 20 19 C20 12.73 20 6.46 20 0 C21.65 0 23.3 0 25 0 C25 9.9 25 19.8 25 30 C23.35 30.33 21.7 30.66 20 31 C16.16082847 25.60081929 12.40890969 20.20555672 9.04296875 14.49609375 C8.05874216 12.83021298 8.05874216 12.83021298 6 12 C6 18.27 6 24.54 6 31 C4.02 31 2.04 31 0 31 C0 20.77 0 10.54 0 0 Z " fill="#232223" transform="translate(283,745)"/>
<path d="M0 0 C5 0 5 0 6.76098633 1.62060547 C7.53865356 2.73266357 7.53865356 2.73266357 8.33203125 3.8671875 C8.90244141 4.67027344 9.47285156 5.47335937 10.06054688 6.30078125 C10.63869141 7.15027344 11.21683594 7.99976563 11.8125 8.875 C12.40998047 9.71675781 13.00746094 10.55851563 13.62304688 11.42578125 C18 17.67857143 18 17.67857143 18 20 C18.66 20 19.32 20 20 20 C20 13.73 20 7.46 20 1 C21.65 1 23.3 1 25 1 C25 11.23 25 21.46 25 32 C19 31 19 31 17.34082031 29.34179688 C16.92413086 28.64119141 16.50744141 27.94058594 16.078125 27.21875 C15.61019531 26.45949219 15.14226563 25.70023438 14.66015625 24.91796875 C14.19480469 24.12003906 13.72945312 23.32210937 13.25 22.5 C12.30076709 20.92473145 11.34782155 19.35169225 10.390625 17.78125 C9.97844727 17.08064453 9.56626953 16.38003906 9.14160156 15.65820312 C8.08877482 13.84308846 8.08877482 13.84308846 6 13 C6 19.27 6 25.54 6 32 C4.02 32 2.04 32 0 32 C0 21.44 0 10.88 0 0 Z " fill="#1B191B" transform="translate(567,744)"/>
<path d="M0 0 C4.13181683 0.09598521 6.98100848 0.49362895 10.24584961 3.08251953 C12.29716408 5.33473594 12.79784384 6.41167617 13.49584961 9.45751953 C12.51253934 13.74832798 10.77247943 17.21745452 6.96459961 19.62158203 C3.26981256 21.05398136 -0.26321096 20.57306187 -4.19165039 20.45751953 C-4.19165039 24.08751953 -4.19165039 27.71751953 -4.19165039 31.45751953 C-5.84165039 31.45751953 -7.49165039 31.45751953 -9.19165039 31.45751953 C-11.04879096 29.60037896 -10.3221372 26.53244904 -10.32446289 24.05126953 C-10.32575195 22.75060547 -10.32704102 21.44994141 -10.32836914 20.10986328 C-10.32627441 19.42907715 -10.32417969 18.74829102 -10.32202148 18.046875 C-10.31667279 15.96623438 -10.32196719 13.88580964 -10.32836914 11.80517578 C-10.32708008 10.50451172 -10.32579102 9.20384766 -10.32446289 7.86376953 C-10.32333496 6.66042969 -10.32220703 5.45708984 -10.32104492 4.21728516 C-10.04896262 -1.58576838 -4.79008782 0.04640132 0 0 Z " fill="#1E1C1E" transform="translate(366.191650390625,744.54248046875)"/>
<path d="M0 0 C2.14715002 1.20255575 3.93843299 2.3428993 5.7109375 4.05078125 C6.2109375 6.86328125 6.2109375 6.86328125 5.7109375 9.05078125 C1.18263561 9.42813974 1.18263561 9.42813974 -1.1640625 7.55078125 C-4.30326683 5.33487231 -6.54389571 5.5826354 -10.2890625 6.05078125 C-12.93144096 7.2751328 -12.93144096 7.2751328 -14.2890625 10.05078125 C-15.08197359 14.89816556 -14.93491474 18.75907678 -12.7265625 23.17578125 C-10.32939118 25.33757293 -10.32939118 25.33757293 -6.7890625 25.55078125 C-3.20747424 25.03912578 -1.72471544 24.67379211 0.7109375 22.05078125 C1.50717572 19.95662321 1.50717572 19.95662321 1.7109375 18.05078125 C-0.9290625 18.05078125 -3.5690625 18.05078125 -6.2890625 18.05078125 C-6.2890625 16.73078125 -6.2890625 15.41078125 -6.2890625 14.05078125 C-3.31025365 13.05784497 -1.27305052 12.91671714 1.8359375 12.92578125 C2.72539063 12.92320312 3.61484375 12.920625 4.53125 12.91796875 C6.7109375 13.05078125 6.7109375 13.05078125 7.7109375 14.05078125 C8.31204889 18.73156667 8.11774178 22.22210587 6.0234375 26.48828125 C3.00432472 29.83378461 0.45366955 30.857979 -4.0078125 31.3515625 C-13.60221329 31.39198835 -13.60221329 31.39198835 -17.2890625 28.05078125 C-20.37137825 23.90585787 -20.72141089 20.72882928 -20.7265625 15.61328125 C-20.74589844 14.33582031 -20.76523437 13.05835938 -20.78515625 11.7421875 C-20.21280339 7.48334145 -18.97539024 5.36342948 -16.2890625 2.05078125 C-11.12906754 -1.46739713 -5.78170555 -2.39753319 0 0 Z " fill="#1B1A1C" transform="translate(819.2890625,744.94921875)"/>
<path d="M0 0 C5.42815097 1.08563019 5.87239411 1.43229464 9 5.5625 C9.68320313 6.4596875 10.36640625 7.356875 11.0703125 8.28125 C13.19625777 11.27650892 15.16055193 14.32095912 16.9921875 17.50390625 C17.93930553 19.17463673 17.93930553 19.17463673 20 20 C20 13.4 20 6.8 20 0 C21.65 0 23.3 0 25 0 C25 10.23 25 20.46 25 31 C23.35 31.33 21.7 31.66 20 32 C8 16.76595745 8 16.76595745 8 12 C7.01 12 6.02 12 5 12 C5 18.6 5 25.2 5 32 C3.35 32 1.7 32 0 32 C0 21.44 0 10.88 0 0 Z " fill="#171617" transform="translate(212,744)"/>
<path d="M0 0 C1.2065625 0.0309375 1.2065625 0.0309375 2.4375 0.0625 C2.87449219 1.22652344 2.87449219 1.22652344 3.3203125 2.4140625 C6.07954552 9.69530599 6.07954552 9.69530599 9.10546875 16.8671875 C9.3792334 17.48513184 9.65299805 18.10307617 9.93505859 18.73974609 C10.71589839 20.486226 11.5080872 22.22761848 12.30078125 23.96875 C13.39285112 26.94098139 13.68825934 28.93675569 13.4375 32.0625 C11.4575 32.0625 9.4775 32.0625 7.4375 32.0625 C6.7775 29.7525 6.1175 27.4425 5.4375 25.0625 C1.4775 24.7325 -2.4825 24.4025 -6.5625 24.0625 C-6.8925 25.7125 -7.2225 27.3625 -7.5625 29.0625 C-8.2225 30.0525 -8.8825 31.0425 -9.5625 32.0625 C-10.8825 32.0625 -12.2025 32.0625 -13.5625 32.0625 C-13.25530718 23.30750453 -9.97293241 15.98624097 -6.5625 8.0625 C-6.15209473 7.08071777 -6.15209473 7.08071777 -5.73339844 6.07910156 C-3.21500721 0.07841481 -3.21500721 0.07841481 0 0 Z " fill="#1F1D1E" transform="translate(547.5625,743.9375)"/>
<path d="M0 0 C2.6875 -0.3125 2.6875 -0.3125 5 0 C7.98702696 5.65724803 10.21548249 11.21517822 12.125 17.3125 C12.62338171 18.89326454 13.12582682 20.47275515 13.6328125 22.05078125 C13.95596436 23.08199097 13.95596436 23.08199097 14.28564453 24.1340332 C15.0301302 26.28412787 15.0301302 26.28412787 17 29 C17 29.99 17 30.98 17 32 C15.02 32 13.04 32 11 32 C9.515 28.535 9.515 28.535 8 25 C4.37 25 0.74 25 -3 25 C-4.32 27.31 -5.64 29.62 -7 32 C-8.32 32 -9.64 32 -11 32 C-11.49416587 26.89361935 -9.74080915 22.70637731 -8 18 C-7.60167969 16.91203125 -7.20335937 15.8240625 -6.79296875 14.703125 C-2.72397859 3.83609388 -2.72397859 3.83609388 0 0 Z " fill="#1E1D1E" transform="translate(681,744)"/>
<path d="M0 0 C3.22618733 2.0790985 4.8669302 3.80039529 7 7 C7.54602034 10.39107371 7.54627924 13.60874176 7 17 C4.37336797 20.38697289 2.12671833 22.6633971 -2.171875 23.34375 C-8.83738602 23.74772036 -8.83738602 23.74772036 -11.9921875 21.71875 C-14.77293211 18.79165041 -16.38551229 16.05690668 -16.75 12 C-16.43077291 7.80093599 -14.39072596 5.36673752 -11.60546875 2.34765625 C-8.1276633 -0.57166949 -4.32866605 -0.37316087 0 0 Z " fill="#121112" transform="translate(483,592)"/>
<path d="M0 0 C6.6 0 13.2 0 20 0 C20 1.65 20 3.3 20 5 C15.38 5 10.76 5 6 5 C6 6.98 6 8.96 6 11 C6.78246094 10.98839844 7.56492187 10.97679687 8.37109375 10.96484375 C9.38300781 10.95582031 10.39492188 10.94679688 11.4375 10.9375 C12.44683594 10.92589844 13.45617187 10.91429687 14.49609375 10.90234375 C17 11 17 11 18 12 C18 13.98 18 15.96 18 18 C14.04 18 10.08 18 6 18 C6 20.31 6 22.62 6 25 C10.62 25 15.24 25 20 25 C20 26.98 20 28.96 20 31 C13.4 31 6.8 31 0 31 C0 20.77 0 10.54 0 0 Z " fill="#242224" transform="translate(317,745)"/>
<path d="M0 0 C4.0241293 2.2191315 6.34019893 4.53439232 8.875 8.375 C9.37 11.345 9.37 11.345 9.875 14.375 C-1.345 14.375 -12.565 14.375 -24.125 14.375 C-23.0390951 7.85957063 -21.76519221 5.66826195 -17.125 1.375 C-11.40663713 -2.39668615 -6.23187479 -2.79965803 0 0 Z " fill="#F2F2F1" transform="translate(339.125,639.625)"/>
<path d="M0 0 C3.94789644 0.96847885 6.85796287 3.34453403 9.29296875 6.5625 C9.29296875 7.5525 9.29296875 8.5425 9.29296875 9.5625 C4.62630208 8.89583333 -0.04036458 8.22916667 -4.70703125 7.5625 C-4.37703125 9.2125 -4.04703125 10.8625 -3.70703125 12.5625 C-3.11535156 12.64886719 -2.52367187 12.73523438 -1.9140625 12.82421875 C2.2062373 13.55686586 4.90081411 14.28238954 8.35546875 16.75 C10.29296875 19.5625 10.29296875 19.5625 11.04296875 23 C10.14312691 27.27424875 8.92169663 28.85997866 5.49609375 31.45703125 C1.47598607 33.47421294 -2.35438121 33.42273658 -6.70703125 32.5625 C-9.83203125 30.875 -9.83203125 30.875 -11.70703125 28.5625 C-12.01953125 25.8125 -12.01953125 25.8125 -11.70703125 23.5625 C-6.95703125 24.3125 -6.95703125 24.3125 -4.70703125 26.5625 C-2.49630148 26.80503813 -2.49630148 26.80503813 -0.08203125 26.6875 C0.73523438 26.66945313 1.5525 26.65140625 2.39453125 26.6328125 C3.33425781 26.59800781 3.33425781 26.59800781 4.29296875 26.5625 C4.23797585 24.64095491 4.23797585 24.64095491 3.29296875 22.5625 C0.66631018 20.89939093 0.66631018 20.89939093 -2.51953125 19.5625 C-6.6462711 17.71275546 -9.85272508 16.1407244 -12.70703125 12.5625 C-12.78429358 8.31307207 -12.09915554 6.13843256 -9.70703125 2.625 C-6.20369294 0.21645491 -4.18024447 -0.22406671 0 0 Z " fill="#1B191B" transform="translate(457.70703125,743.4375)"/>
<path d="M0 0 C2.09648551 1.55295223 3.36282355 2.99805003 4.6875 5.25 C4.6875 6.57 4.6875 7.89 4.6875 9.25 C0.14204545 9.62878788 0.14204545 9.62878788 -2.1875 7.6875 C-4.37726773 5.90211761 -4.37726773 5.90211761 -7.875 6.375 C-11.31155903 7.24976048 -12.2539217 7.53810045 -14.3125 10.25 C-15.14537361 15.03230655 -14.70974989 19.98822241 -12.3125 24.25 C-9.86472161 25.4738892 -8.57859459 25.266364 -5.875 25 C-5.09253906 24.93296875 -4.31007813 24.8659375 -3.50390625 24.796875 C-0.93377093 24.15548651 -0.09354801 23.1391463 1.6875 21.25 C3.875 21.5625 3.875 21.5625 5.6875 22.25 C5.34782174 25.42033042 4.68880809 26.24882607 2.25 28.4375 C-2.27169766 31.63577395 -5.85449754 31.92076461 -11.3125 31.25 C-15.80709848 28.91946745 -19.12174334 26.28101695 -21 21.5 C-21.97742598 14.46253296 -21.66829224 9.05772299 -17.3125 3.25 C-12.31865524 -1.25078161 -6.38168446 -2.0697355 0 0 Z " fill="#1C1A1C" transform="translate(508.3125,744.75)"/>
<path d="M0 0 C3.51609226 0.39804818 5.55721565 1.26549976 8.171875 3.6875 C10.03529 6.44433315 9.99838557 8.9007386 9.78125 12.15234375 C9.0691331 15.52896473 7.5229222 17.7745033 5.3125 20.375 C2.43779507 21.81235246 0.49355412 21.75672649 -2.6875 21.375 C-5.86622152 18.11036709 -7.56373635 15.66214197 -8 11.125 C-7.57717971 6.05115655 -5.41869068 0.75609637 0 0 Z " fill="#F3F3F3" transform="translate(189.6875,749.625)"/>
<path d="M0 0 C7.92 0 15.84 0 24 0 C24 1.65 24 3.3 24 5 C21.36 5 18.72 5 16 5 C16 13.58 16 22.16 16 31 C14.02 30.67 12.04 30.34 10 30 C10 22.08 10 14.16 10 6 C7.03 6 4.06 6 1 6 C0.67 5.67 0.34 5.34 0 5 C0 3.35 0 1.7 0 0 Z " fill="#1B1A1C" transform="translate(611,745)"/>
<path d="M0 0 C2.125 1.4375 2.125 1.4375 4 3 C6.64934822 3.71433121 6.64934822 3.71433121 9 4 C9.33 3.01 9.66 2.02 10 1 C10 2.32 10 3.64 10 5 C9.01 5.33 8.02 5.66 7 6 C7.99 6.66 8.98 7.32 10 8 C3.565 8.495 3.565 8.495 -3 9 C-3 10.32 -3 11.64 -3 13 C-0.36 13 2.28 13 5 13 C4.68306247 15.93167219 4.36774166 17.58982661 2.375 19.8125 C-1.05225281 21.5261264 -3.21874375 21.59704046 -7 21 C-10.33458323 18.30395398 -11.65941667 16.73614431 -12.48046875 12.55078125 C-12.72806072 8.07405084 -12.44347562 5.67193275 -9.9375 1.875 C-6.2666518 -0.46809459 -4.2831947 -0.62301014 0 0 Z " fill="#EEEEEE" transform="translate(816,750)"/>
<path d="M0 0 C6.93 0 13.86 0 21 0 C21 35.31 21 70.62 21 107 C14.07 107 7.14 107 0 107 C-0.495 104.525 -0.495 104.525 -1 102 C-1.99 101.34 -2.98 100.68 -4 100 C-2.625 98.5 -2.625 98.5 -1 97 C-0.34 97 0.32 97 1 97 C1 99.97 1 102.94 1 106 C6.94 106 12.88 106 19 106 C19 71.35 19 36.7 19 1 C12.73 1 6.46 1 0 1 C0 0.67 0 0.34 0 0 Z " fill="#BDBCC0" transform="translate(434,594)"/>
<path d="M0 0 C2.29296875 -0.2734375 2.29296875 -0.2734375 5 0 C6.80078125 1.8984375 6.80078125 1.8984375 8.3125 4.375 C8.82425781 5.18710937 9.33601563 5.99921875 9.86328125 6.8359375 C11 9 11 9 11 11 C11.99 11 12.98 11 14 11 C14.0825 10.46375 14.165 9.9275 14.25 9.375 C15.30236625 6.04250689 16.79012492 3.70095843 19 1 C21.75 0.625 21.75 0.625 24 1 C23.7326281 6.34743805 21.65029925 9.17619779 18.375 13.16796875 C15.709493 16.71945393 15.73543655 20.38870118 15.4375 24.6875 C15.35371094 25.86699219 15.26992188 27.04648437 15.18359375 28.26171875 C15.12300781 29.16535156 15.06242187 30.06898438 15 31 C13.35 31.33 11.7 31.66 10 32 C10.020625 31.14019531 10.04125 30.28039062 10.0625 29.39453125 C9.90197864 20.19465073 8.0377508 15.23917212 2.8125 7.83984375 C1.05533667 5.08670207 0.37677947 3.2085127 0 0 Z " fill="#1E1D1F" transform="translate(417,744)"/>
<path d="M0 0 C1.65 0 3.3 0 5 0 C5 8.58 5 17.16 5 26 C8.96 26 12.92 26 17 26 C17 27.65 17 29.3 17 31 C16 32 16 32 12.18359375 32.09765625 C10.60153318 32.09098089 9.01948841 32.07901875 7.4375 32.0625 C6.63119141 32.05798828 5.82488281 32.05347656 4.99414062 32.04882812 C2.99606244 32.03700518 0.99802217 32.01906914 -1 32 C-1.02465504 27.60343827 -1.04283842 23.2069128 -1.05493164 18.81030273 C-1.05997121 17.31355082 -1.06680287 15.81680384 -1.07543945 14.32006836 C-1.08752159 12.17300193 -1.09323191 10.02600038 -1.09765625 7.87890625 C-1.10289307 6.5854126 -1.10812988 5.29191895 -1.11352539 3.95922852 C-1 1 -1 1 0 0 Z " fill="#201E1F" transform="translate(246,744)"/>
<path d="M0 0 C1.98 0 3.96 0 6 0 C6 10.23 6 20.46 6 31 C4.35 31 2.7 31 1 31 C-1.23828125 28.6640625 -1.23828125 28.6640625 -3.3125 25.625 C-4.00988281 24.62726562 -4.70726562 23.62953125 -5.42578125 22.6015625 C-7 20 -7 20 -7 18 C-6.34 17.67 -5.68 17.34 -5 17 C-4.34 16.01 -3.68 15.02 -3 14 C-2.34 15.32 -1.68 16.64 -1 18 C-0.505 9.09 -0.505 9.09 0 0 Z " fill="#171518" transform="translate(737,745)"/>
<path d="M0 0 C9.57 0 19.14 0 29 0 C26.48571291 5.02857417 23.7047767 8.8634822 19 12 C13.6484664 12.43157529 10.29646524 12.50501112 6 9 C0 2.81384248 0 2.81384248 0 0 Z " fill="#F0EFEF" transform="translate(480,393)"/>
<path d="M0 0 C1.65 0 3.3 0 5 0 C5 9.9 5 19.8 5 30 C3.35 30.33 1.7 30.66 0 31 C-5.04615385 24.96923077 -5.04615385 24.96923077 -4.8125 20.0625 C-4.544375 19.051875 -4.27625 18.04125 -4 17 C-3.34 17 -2.68 17 -2 17 C-2 17.66 -2 18.32 -2 19 C-1.34 19 -0.68 19 0 19 C0 12.73 0 6.46 0 0 Z " fill="#161317" transform="translate(303,745)"/>
<path d="M0 0 C1.65 0 3.3 0 5 0 C5 10.56 5 21.12 5 32 C3.02 32 1.04 32 -1 32 C-1.02465504 27.60343827 -1.04283842 23.2069128 -1.05493164 18.81030273 C-1.05997121 17.31355082 -1.06680287 15.81680384 -1.07543945 14.32006836 C-1.08752159 12.17300193 -1.09323191 10.02600038 -1.09765625 7.87890625 C-1.10289307 6.5854126 -1.10812988 5.29191895 -1.11352539 3.95922852 C-1 1 -1 1 0 0 Z " fill="#1E1D1F" transform="translate(522,744)"/>
<path d="M0 0 C1.98 0 3.96 0 6 0 C6 10.23 6 20.46 6 31 C4.02 31 2.04 31 0 31 C0 20.77 0 10.54 0 0 Z " fill="#262427" transform="translate(704,745)"/>
<path d="M0 0 C1.98 0 3.96 0 6 0 C6 10.23 6 20.46 6 31 C4.02 31 2.04 31 0 31 C0 20.77 0 10.54 0 0 Z " fill="#292729" transform="translate(474,745)"/>
<path d="M0 0 C1.98 0 3.96 0 6 0 C6.02465622 4.25414623 6.04283899 8.50825498 6.05493164 12.76245117 C6.05997101 14.21070073 6.06680253 15.65894517 6.07543945 17.10717773 C6.08752247 19.18474588 6.09323211 21.26224697 6.09765625 23.33984375 C6.10289307 24.59144287 6.10812988 25.84304199 6.11352539 27.13256836 C6 30 6 30 5 31 C3.35 31 1.7 31 0 31 C0 20.77 0 10.54 0 0 Z " fill="#3F3D40" transform="translate(752,745)"/>
<path d="M0 0 C1.65 0 3.3 0 5 0 C5 10.23 5 20.46 5 31 C3.35 30.67 1.7 30.34 0 30 C0 20.1 0 10.2 0 0 Z " fill="#181518" transform="translate(269,745)"/>
<path d="M0 0 C3.625 0.1875 3.625 0.1875 6.625 2.1875 C6.8125 5.8125 6.8125 5.8125 6.625 9.1875 C4.97925434 9.21438151 3.33338587 9.23384123 1.6875 9.25 C0.77097656 9.26160156 -0.14554687 9.27320313 -1.08984375 9.28515625 C-3.375 9.1875 -3.375 9.1875 -4.375 8.1875 C-4.5 4.6875 -4.5 4.6875 -4.375 1.1875 C-3.375 0.1875 -3.375 0.1875 0 0 Z " fill="#DADADA" transform="translate(366.375,749.8125)"/>
<path d="M0 0 C2.03125 0.0859375 2.03125 0.0859375 4.5 0.375 C5.3146875 0.46523438 6.129375 0.55546875 6.96875 0.6484375 C9 1 9 1 10 2 C10.25 4.4375 10.25 4.4375 10 7 C6.34346173 9.43769218 4.30999899 9.23944439 0 9 C-1 8 -1 8 -1.125 4.5 C-1 1 -1 1 0 0 Z " fill="#DFDFE0" transform="translate(648,750)"/>
<path d="M0 0 C0.99 0 1.98 0 3 0 C3 9.57 3 19.14 3 29 C2.01 29 1.02 29 0 29 C0 19.43 0 9.86 0 0 Z " fill="#040203" transform="translate(753,746)"/>
<path d="M0 0 C2.52845528 1.26422764 2.76422764 2.52845528 4 5 C4.66 5.33 5.32 5.66 6 6 C6.02687279 7.81242052 6.04633715 9.62495233 6.0625 11.4375 C6.07410156 12.44683594 6.08570313 13.45617187 6.09765625 14.49609375 C6 17 6 17 5 18 C3.35 18 1.7 18 0 18 C0 12.06 0 6.12 0 0 Z " fill="#333033" transform="translate(642,758)"/>
<path d="M0 0 C0.66 0 1.32 0 2 0 C2 12.21 2 24.42 2 37 C-3 35 -3 35 -5 32 C-3.35 32.66 -1.7 33.32 0 34 C0 22.78 0 11.56 0 0 Z " fill="#BFBFBF" transform="translate(432,595)"/>
<path d="M0 0 C0.33 0 0.66 0 1 0 C1.82351864 6.38226945 2.12086218 12.56744599 2 19 C2.79664063 18.98839844 3.59328125 18.97679687 4.4140625 18.96484375 C14.93848858 18.87521968 14.93848858 18.87521968 20 20 C20 20.33 20 20.66 20 21 C13.4 21 6.8 21 0 21 C0 14.07 0 7.14 0 0 Z " fill="#302F33" transform="translate(263,679)"/>
<path d="M0 0 C0.66 0 1.32 0 2 0 C2 6.93 2 13.86 2 21 C1.01 21 0.02 21 -1 21 C-1.02888146 17.68751813 -1.04675799 14.37506833 -1.0625 11.0625 C-1.07087891 10.11697266 -1.07925781 9.17144531 -1.08789062 8.19726562 C-1.09111328 7.29814453 -1.09433594 6.39902344 -1.09765625 5.47265625 C-1.10289307 4.64000244 -1.10812988 3.80734863 -1.11352539 2.94946289 C-1 1 -1 1 0 0 Z " fill="#060406" transform="translate(476,754)"/>
<path d="M0 0 C0.33 0 0.66 0 1 0 C1 14.52 1 29.04 1 44 C0.67 44 0.34 44 0 44 C0 31.13 0 18.26 0 5 C-0.66 5 -1.32 5 -2 5 C-2.33 5.99 -2.66 6.98 -3 8 C-3.33 7.34 -3.66 6.68 -4 6 C-1.68421053 1.68421053 -1.68421053 1.68421053 0 0 Z " fill="#EEEEEF" transform="translate(261,632)"/>
<path d="M0 0 C3 1 3 1 4.1875 3.375 C5 6 5 6 5 9 C2.69 9 0.38 9 -2 9 C-1.125 1.125 -1.125 1.125 0 0 Z " fill="#D3D3D3" transform="translate(546,754)"/>
<path d="M0 0 C1.2065625 0.0309375 1.2065625 0.0309375 2.4375 0.0625 C1.1175 0.3925 -0.2025 0.7225 -1.5625 1.0625 C-1.5625 7.6625 -1.5625 14.2625 -1.5625 21.0625 C-2.5525 20.7325 -3.5425 20.4025 -4.5625 20.0625 C-4.42427801 16.91628318 -4.27564916 13.77064434 -4.125 10.625 C-4.08568359 9.72716797 -4.04636719 8.82933594 -4.00585938 7.90429688 C-3.96396484 7.05029297 -3.92207031 6.19628906 -3.87890625 5.31640625 C-3.84224854 4.52564697 -3.80559082 3.7348877 -3.76782227 2.92016602 C-3.44307961 -0.01796341 -2.9881666 0.07288211 0 0 Z " fill="#B1B1B3" transform="translate(233.5625,742.9375)"/>
<path d="M0 0 C0 2 0 2 -1.50390625 3.515625 C-2.18324219 4.08796875 -2.86257813 4.6603125 -3.5625 5.25 C-4.28566406 5.86488281 -5.00882812 6.47976563 -5.75390625 7.11328125 C-6.49511719 7.73589844 -7.23632812 8.35851562 -8 9 C-9.33427675 10.14473463 -10.66769833 11.29046728 -12 12.4375 C-12.99 13.283125 -13.98 14.12875 -15 15 C-13.19587222 9.04637831 -9.26783148 4.59779036 -4.25 1.0625 C-2 0 -2 0 0 0 Z " fill="#353536" transform="translate(315,627)"/>
<path d="M0 0 C0.66 0 1.32 0 2 0 C3.49821059 3.37097383 4 5.20442119 4 9 C1.69 9 -0.62 9 -3 9 C-2.5020163 5.26512223 -2.12508244 3.18762365 0 0 Z " fill="#BEBCBE" transform="translate(683,754)"/>
<path d="M0 0 C0.66 0 1.32 0 2 0 C2 6.27 2 12.54 2 19 C1.34 19 0.68 19 0 19 C-0.66 17.68 -1.32 16.36 -2 15 C-1.34 15 -0.68 15 0 15 C0 10.05 0 5.1 0 0 Z " fill="#C1C1C2" transform="translate(784,745)"/>
<path d="M0 0 C0 2.97 0 5.94 0 9 C5.94 9 11.88 9 18 9 C18 9.33 18 9.66 18 10 C11.73 10 5.46 10 -1 10 C-1.33 8.35 -1.66 6.7 -2 5 C-2.99 4.34 -3.98 3.68 -5 3 C-2.25 0 -2.25 0 0 0 Z " fill="#999697" transform="translate(435,691)"/>
<path d="M0 0 C0 0.33 0 0.66 0 1 C-1.98 1 -3.96 1 -6 1 C-6.28875 1.5775 -6.5775 2.155 -6.875 2.75 C-7.57103291 4.14206581 -8.29518663 5.52091758 -9.0625 6.875 C-10.2385642 9.54074552 -10.60786158 12.12431827 -11 15 C-11.33 15 -11.66 15 -12 15 C-12.77162899 6.16913484 -12.77162899 6.16913484 -9.9375 1.875 C-6.35870823 -0.40933517 -4.16952449 -0.40877691 0 0 Z " fill="#B1B1B1" transform="translate(816,750)"/>
<path d="M0 0 C-3 2 -3 2 -6 2 C-6 2.66 -6 3.32 -6 4 C-7.2065625 4.9590625 -7.2065625 4.9590625 -8.4375 5.9375 C-11.23720732 7.81035932 -11.23720732 7.81035932 -12 11 C-12.66 11 -13.32 11 -14 11 C-12.64804469 4.48603352 -12.64804469 4.48603352 -9.5 2.125 C-8.675 1.75375 -7.85 1.3825 -7 1 C-4.53721199 -0.231394 -2.7204945 -0.07159196 0 0 Z " fill="#535255" transform="translate(615,307)"/>
<path d="M0 0 C0.66 0.33 1.32 0.66 2 1 C1.21625 1.721875 0.4325 2.44375 -0.375 3.1875 C-4.39015029 7.8851121 -4.41105663 14.07540551 -5 20 C-5.33 20 -5.66 20 -6 20 C-6.47425518 12.71491352 -6.33794218 7.99656713 -2 2 C-1.34 1.34 -0.68 0.68 0 0 Z " fill="#5B595B" transform="translate(182,746)"/>
<path d="M0 0 C0.66 0.33 1.32 0.66 2 1 C0.75796305 2.46512126 -0.49397056 3.92185645 -1.75 5.375 C-2.44609375 6.18710938 -3.1421875 6.99921875 -3.859375 7.8359375 C-5.85949643 9.85795807 -7.39531129 10.93231229 -10 12 C-8.52278578 8.54798361 -6.56205999 6.35038064 -3.875 3.75 C-3.15054687 3.04359375 -2.42609375 2.3371875 -1.6796875 1.609375 C-1.12539063 1.07828125 -0.57109375 0.5471875 0 0 Z " fill="#414244" transform="translate(402,220)"/>
<path d="M0 0 C0.99 0 1.98 0 3 0 C3.33 1.32 3.66 2.64 4 4 C3.01 3.67 2.02 3.34 1 3 C1 8.28 1 13.56 1 19 C0.67 19 0.34 19 0 19 C0 12.73 0 6.46 0 0 Z " fill="#9D9C9B" transform="translate(217,756)"/>
<path d="M0 0 C0.66 0.33 1.32 0.66 2 1 C0.54540569 2.64913882 -0.91379257 4.29421782 -2.375 5.9375 C-3.18710937 6.85402344 -3.99921875 7.77054688 -4.8359375 8.71484375 C-7 11 -7 11 -9 12 C-7.55575365 8.76138697 -5.74227753 6.38030837 -3.375 3.75 C-2.74335938 3.04359375 -2.11171875 2.3371875 -1.4609375 1.609375 C-0.97882813 1.07828125 -0.49671875 0.5471875 0 0 Z " fill="#444345" transform="translate(391,629)"/>
<path d="M0 0 C1.98 0.495 1.98 0.495 4 1 C4 1.66 4 2.32 4 3 C3.01 3 2.02 3 1 3 C1 7.62 1 12.24 1 17 C0.34 16.67 -0.32 16.34 -1 16 C-0.67 10.72 -0.34 5.44 0 0 Z " fill="#E7E7E6" transform="translate(218,759)"/>
<path d="M0 0 C0 2.64 0 5.28 0 8 C-0.66 7.67 -1.32 7.34 -2 7 C-2 5.68 -2 4.36 -2 3 C-3.32 3.99 -4.64 4.98 -6 6 C-6.66 5.67 -7.32 5.34 -8 5 C-2.25 0 -2.25 0 0 0 Z " fill="#A9A6A7" transform="translate(687,692)"/>
<path d="M0 0 C2.49361571 1.20381448 4.68143083 2.45428722 7 4 C7 4.66 7 5.32 7 6 C8.32 6 9.64 6 11 6 C11 6.66 11 7.32 11 8 C8.70703125 8.25 8.70703125 8.25 6 8 C4.19921875 6.25 4.19921875 6.25 2.6875 4 C1.91986328 2.88625 1.91986328 2.88625 1.13671875 1.75 C0.57404297 0.88375 0.57404297 0.88375 0 0 Z " fill="#AAA8AA" transform="translate(552,203)"/>
<path d="M0 0 C-1.5830577 4.2742558 -4.50568404 6.26531794 -8 9 C-8 6 -8 6 -6.7578125 4.39453125 C-5.94957031 3.61142578 -5.94957031 3.61142578 -5.125 2.8125 C-4.59132813 2.28269531 -4.05765625 1.75289062 -3.5078125 1.20703125 C-2 0 -2 0 0 0 Z " fill="#C3C3C4" transform="translate(563,619)"/>
<path d="M0 0 C0.33 0 0.66 0 1 0 C1 3.3 1 6.6 1 10 C0.67 10 0.34 10 0 10 C0 8.35 0 6.7 0 5 C-0.66 5 -1.32 5 -2 5 C-2.33 5.99 -2.66 6.98 -3 8 C-3.33 7.34 -3.66 6.68 -4 6 C-1.68421053 1.68421053 -1.68421053 1.68421053 0 0 Z " fill="#8F8E8E" transform="translate(261,632)"/>
<path d="M0 0 C0.625 1.8125 0.625 1.8125 1 4 C0.01 5.485 0.01 5.485 -1 7 C-1.99 6.67 -2.98 6.34 -4 6 C-4.6875 3.9375 -4.6875 3.9375 -5 2 C-3.68 2 -2.36 2 -1 2 C-0.67 1.34 -0.34 0.68 0 0 Z " fill="#949494" transform="translate(232,653)"/>
<path d="M0 0 C-1.36983503 3.16115776 -1.9890638 3.9927092 -5 6 C-5.33 6.99 -5.66 7.98 -6 9 C-6.66 9 -7.32 9 -8 9 C-6.68994234 5.06982701 -4.75047804 0 0 0 Z " fill="#B5B4B4" transform="translate(324,641)"/>
<path d="M0 0 C0.99 0.33 1.98 0.66 3 1 C3.6875 3.0625 3.6875 3.0625 4 5 C3.01 4.67 2.02 4.34 1 4 C1 6.31 1 8.62 1 11 C0.67 11 0.34 11 0 11 C0 7.37 0 3.74 0 0 Z " fill="#D8D8D7" transform="translate(289,757)"/>
<path d="M0 0 C0.94875 0.04125 1.8975 0.0825 2.875 0.125 C2.875 0.455 2.875 0.785 2.875 1.125 C1.225 1.125 -0.425 1.125 -2.125 1.125 C-2.393125 1.74375 -2.66125 2.3625 -2.9375 3 C-4.125 5.125 -4.125 5.125 -7.125 7.125 C-4.56730769 0.18269231 -4.56730769 0.18269231 0 0 Z " fill="#C3C3C3" transform="translate(190.125,749.875)"/>
<path d="M0 0 C0.66 0.33 1.32 0.66 2 1 C-2.625 6.875 -2.625 6.875 -6 8 C-4.55746343 4.63408134 -2.66735273 2.48952921 0 0 Z " fill="#B4B3B4" transform="translate(591,415)"/>
<path d="M0 0 C2.4375 0.375 2.4375 0.375 5 1 C5.33 1.66 5.66 2.32 6 3 C4.68 2.67 3.36 2.34 2 2 C1.67 3.32 1.34 4.64 1 6 C0 5 0 5 -0.0625 2.4375 C-0.041875 1.633125 -0.02125 0.82875 0 0 Z " fill="#2B292C" transform="translate(446,767)"/>
<path d="M0 0 C0.66 0 1.32 0 2 0 C2.33 1.65 2.66 3.3 3 5 C1.35 5 -0.3 5 -2 5 C-1.34 3.35 -0.68 1.7 0 0 Z " fill="#FBFBFB" transform="translate(683,758)"/>
<path d="M0 0 C0.33 0 0.66 0 1 0 C1 3.3 1 6.6 1 10 C0.01 10 -0.98 10 -2 10 C-1.34 6.7 -0.68 3.4 0 0 Z " fill="#0C090B" transform="translate(645,765)"/>
<path d="M0 0 C0.66 0.33 1.32 0.66 2 1 C0.38405168 3.04119788 -1.2856382 5.04072937 -3 7 C-3.66 7 -4.32 7 -5 7 C-3.70700306 4.11562221 -2.34058637 2.12780579 0 0 Z " fill="#BAB9BB" transform="translate(746,644)"/>
<path d="M0 0 C0.66 0.33 1.32 0.66 2 1 C0.38405168 3.04119788 -1.2856382 5.04072937 -3 7 C-3.66 7 -4.32 7 -5 7 C-3.70700306 4.11562221 -2.34058637 2.12780579 0 0 Z " fill="#B7B6B6" transform="translate(407,641)"/>
</svg>
