<?xml version="1.0" encoding="UTF-8"?>
<svg version="1.1" xmlns="http://www.w3.org/2000/svg" width="500" height="500">
<path d="M0 0 C2.38098762 2.13817762 4.72462058 4.31132019 7.06640625 6.4921875 C8.41646789 7.66360204 9.77048139 8.8304817 11.12890625 9.9921875 C19.30467088 17.15008585 26.32403632 24.98659911 33.06640625 33.4921875 C33.94046748 34.56456793 34.81549915 35.63615798 35.69140625 36.70703125 C61.72165356 68.80339311 78.41334549 106.96507794 86.06640625 147.4921875 C86.23011719 148.31219238 86.39382813 149.13219727 86.5625 149.97705078 C91.85669079 177.49262295 91.74199609 210.05762025 86.06640625 237.4921875 C85.86772949 238.46994141 85.66905273 239.44769531 85.46435547 240.45507812 C77.35107371 279.22866434 61.79653467 315.37570723 37.06640625 346.4921875 C36.36257813 347.38808594 35.65875 348.28398437 34.93359375 349.20703125 C-7.14551944 401.76821744 -67.48263293 433.93531477 -134.16894531 442.02270508 C-138.92285994 442.54017812 -143.63875314 442.68648233 -148.41796875 442.73046875 C-149.74609085 442.74522751 -149.74609085 442.74522751 -151.1010437 442.76028442 C-204.29862534 443.22887048 -255.40469853 432.02802989 -299.93359375 401.4921875 C-300.54235352 401.07727051 -301.15111328 400.66235352 -301.77832031 400.23486328 C-314.73809233 391.34083504 -326.53785043 381.2958939 -337.93359375 370.4921875 C-339.06474609 369.42484375 -339.06474609 369.42484375 -340.21875 368.3359375 C-345.60768051 363.10771068 -350.26561685 357.36309524 -354.93359375 351.4921875 C-355.80914299 350.41865639 -356.68546792 349.34575753 -357.5625 348.2734375 C-364.72047585 339.44526728 -371.02874082 330.20012936 -376.93359375 320.4921875 C-377.36027344 319.7914209 -377.78695312 319.0906543 -378.2265625 318.36865234 C-392.16838705 295.14478999 -401.11488563 269.53259616 -406.74609375 243.1171875 C-406.94114502 242.20388672 -407.13619629 241.29058594 -407.3371582 240.34960938 C-410.48463652 224.67747206 -411.34431102 209.18934308 -411.30859375 193.2421875 C-411.30771759 192.28096985 -411.30684143 191.3197522 -411.30593872 190.32940674 C-411.19195677 152.22946 -403.09821802 115.61453363 -385.93359375 81.4921875 C-385.55299805 80.73373535 -385.17240234 79.9752832 -384.78027344 79.19384766 C-372.56989419 55.03979721 -356.52657205 34.10405035 -337.93359375 14.4921875 C-336.86625 13.36103516 -336.86625 13.36103516 -335.77734375 12.20703125 C-330.55031899 6.81933974 -324.81683677 2.1429725 -318.93359375 -2.5078125 C-317.94488281 -3.301875 -316.95617187 -4.0959375 -315.9375 -4.9140625 C-287.57458625 -27.29279095 -254.87846283 -42.62198301 -219.93359375 -51.5078125 C-218.74121094 -51.81332031 -217.54882812 -52.11882813 -216.3203125 -52.43359375 C-212.87062259 -53.23920996 -209.42267815 -53.89466796 -205.93359375 -54.5078125 C-204.88461914 -54.71083984 -204.88461914 -54.71083984 -203.81445312 -54.91796875 C-132.59878829 -68.32753414 -54.8661818 -46.9029144 0 0 Z " fill="#FEFEFE" transform="translate(410.93359375,57.5078125)"/>
<path d="M0 0 C46.84563758 0 46.84563758 0 65 10 C65.81082031 10.44601563 66.62164062 10.89203125 67.45703125 11.3515625 C73.25904975 14.80049297 78.40215895 18.85475018 83.5 23.25 C84.08023926 23.75007568 84.66047852 24.25015137 85.25830078 24.76538086 C86.44740485 25.81350192 87.61876706 26.88207574 88.77205944 27.96947765 C90.37707919 29.43227631 92.04586015 30.82617701 93.74992085 32.17229939 C98.76403304 36.47161898 102.45341249 39.81433174 103.22055852 46.70492971 C103.40438516 50.4298354 103.34623705 54.12762386 103.2487793 57.85424805 C103.24567094 59.53072402 103.24742899 61.20721493 103.25364685 62.88368225 C103.25678515 67.40488277 103.19242224 71.92283044 103.11533332 76.44327903 C103.0462601 81.17830854 103.04008337 85.91342441 103.02705383 90.64888 C102.99295351 99.60238448 102.9028113 108.55439992 102.79220945 117.50725061 C102.66897603 127.70540766 102.60870731 137.90363831 102.55355966 148.10235536 C102.43878404 169.06906592 102.24548067 190.03443891 102 211 C98.6200839 209.38309361 96.05125376 207.49515105 93.1875 205.0625 C86.89719652 199.84717495 80.39516194 194.9749161 73.73681641 190.23974609 C72.22421649 189.16004658 70.72601388 188.06023309 69.23046875 186.95703125 C49.36464833 173.13334976 22.98843271 172.99899415 0 171 C0 114.57 0 58.14 0 0 Z " fill="#3F80D8" transform="translate(144,94)"/>
<path d="M0 0 C0 56.43 0 112.86 0 171 C-11.385 171.99 -11.385 171.99 -23 173 C-51.11803345 175.92427548 -70.28193353 186.83807038 -91.6706543 204.70922852 C-92.62645386 205.5028479 -92.62645386 205.5028479 -93.6015625 206.3125 C-94.16182129 206.78300781 -94.72208008 207.25351562 -95.29931641 207.73828125 C-97.11463897 209.08504941 -98.97122869 210.01315918 -101 211 C-101.18696985 188.84270067 -101.32799844 166.68553159 -101.41449738 144.52760315 C-101.45572993 134.23899956 -101.51193348 123.95088642 -101.60351562 113.66259766 C-101.68331072 104.69417617 -101.73487928 95.7261099 -101.75270796 86.75734329 C-101.76312828 82.00922924 -101.78757578 77.26213128 -101.84584045 72.51434326 C-101.90027423 68.04235445 -101.91686673 63.57179694 -101.90486145 59.09950829 C-101.90705655 57.46120604 -101.92289456 55.82285437 -101.9536438 54.18483925 C-102.17401884 41.8363707 -102.17401884 41.8363707 -99.28318787 37.31460571 C-97.29168808 35.29298062 -95.30084418 33.65226155 -93 32 C-91.80242654 30.9278129 -90.61334875 29.84596856 -89.4375 28.75 C-87.96549215 27.4915776 -86.48501439 26.24304718 -85 25 C-84.46987305 24.55076172 -83.93974609 24.10152344 -83.39355469 23.63867188 C-67.35402139 10.11220454 -52.95003994 3.560013 -31.875 1.3125 C-30.25078125 1.11817383 -30.25078125 1.11817383 -28.59375 0.91992188 C-18.91105458 -0.14652884 -9.91049335 0 0 0 Z " fill="#3E7FD8" transform="translate(361,94)"/>
<path d="M0 0 C26.67683346 -0.09334481 53.35364253 -0.16393085 80.03060627 -0.20724869 C92.41653711 -0.22789442 104.80236661 -0.25605344 117.18823242 -0.30175781 C127.98081518 -0.341564 138.77332458 -0.36741817 149.56597871 -0.37635398 C155.28329337 -0.38157926 161.00039811 -0.39390232 166.71764565 -0.42292023 C172.09463595 -0.44999106 177.47132906 -0.45846188 182.84838104 -0.45243073 C184.82574514 -0.4535347 186.80311878 -0.46153794 188.78042412 -0.4768219 C191.47286702 -0.49661958 194.1641765 -0.4919769 196.85664368 -0.48101807 C197.64554955 -0.49266943 198.43445543 -0.5043208 199.24726754 -0.51632524 C204.51697936 -0.45804055 204.51697936 -0.45804055 207.00895977 1.90506363 C208 4 208 4 208 6 C205.69 6 203.38 6 201 6 C201 15.9 201 25.8 201 36 C196 34 196 34 194 33 C193.375 30.9375 193.375 30.9375 193 29 C192.01 29.12375 191.02 29.2475 190 29.375 C184.87009974 29.38542663 181.56975328 26.41699357 178 23 C175 18.875 175 18.875 175 16 C175.969375 15.4225 176.93875 14.845 177.9375 14.25 C181.28740528 12.27945839 181.28740528 12.27945839 181.875 8.75 C181.91625 7.8425 181.9575 6.935 182 6 C178.04 6 174.08 6 170 6 C170 15.9 170 25.8 170 36 C166 35 166 35 163 33 C162.65942383 31.12060547 162.65942383 31.12060547 162.70703125 28.8671875 C162.71669922 28.06152344 162.72636719 27.25585938 162.73632812 26.42578125 C162.76146484 25.58402344 162.78660156 24.74226563 162.8125 23.875 C162.82603516 23.02550781 162.83957031 22.17601562 162.85351562 21.30078125 C162.88891781 19.20025163 162.94272599 17.10004707 163 15 C160.9692697 15.70210243 160.9692697 15.70210243 159 17 C158.30367785 18.95365445 158.30367785 18.95365445 158.25 21.125 C158.1675 22.40375 158.085 23.6825 158 25 C155.69 24.67 153.38 24.34 151 24 C151 21.36 151 18.72 151 16 C149.02463255 16.34786708 149.02463255 16.34786708 147 17 C145.54112611 19.91774779 145.63176767 21.74728105 146 25 C147.77586805 28.24692293 149.63961237 31.31980618 153 33 C152.34 34.32 151.68 35.64 151 37 C139.72802205 28.13184444 139.72802205 28.13184444 138.5546875 21.47265625 C138.37886624 17.48151363 138.4985384 14.84245548 140.5625 11.375 C143.91956963 9.48126841 146.19567228 9.59954445 150 10 C152.9375 11 152.9375 11 155 12 C155.33 11.67 155.66 11.34 156 11 C158.33297433 10.95907063 160.66705225 10.95758277 163 11 C163 9.35 163 7.7 163 6 C152.77 6 142.54 6 132 6 C132 15.9 132 25.8 132 36 C127 34 127 34 125 33 C125 24.09 125 15.18 125 6 C119.06 6 113.12 6 107 6 C107.495 9.465 107.495 9.465 108 13 C109.051875 12.896875 110.10375 12.79375 111.1875 12.6875 C115 13 115 13 117.9375 15 C120.12150108 18.17672885 120.60856259 20.14960991 120.375 23.99609375 C119.81473043 26.99003427 118.55580104 29.40699826 117 32 C115.0625 31.1875 115.0625 31.1875 113 30 C112.505 28.515 112.505 28.515 112 27 C112.96885372 25.31503702 113.96986723 23.64821244 115 22 C115 21.01 115 20.02 115 19 C111.06924356 19.57452746 111.06924356 19.57452746 108 22 C107.69940057 24.36509361 107.50484988 26.74441881 107.375 29.125 C107.30023438 30.40632813 107.22546875 31.68765625 107.1484375 33.0078125 C107.07496094 34.48894531 107.07496094 34.48894531 107 36 C102.25 34.125 102.25 34.125 100 33 C100 31.68 100 30.36 100 29 C98.80375 29.103125 97.6075 29.20625 96.375 29.3125 C92.95850513 29.33070512 91.19761597 28.81131276 88.5625 26.625 C85.34145647 23.32539444 85.07329237 22.75735452 84.625 18.125 C84.67384103 14.76717927 84.8334643 14.19592435 87.125 11.5 C90.45800237 9.76104224 92.29065683 9.52646683 96 10 C98.375 11 98.375 11 100 12 C100 10.02 100 8.04 100 6 C93.07 6 86.14 6 79 6 C79 15.9 79 25.8 79 36 C74 34 74 34 72 33 C72 27.72 72 22.44 72 17 C70.0509375 17.4640625 70.0509375 17.4640625 68.0625 17.9375 C67.33160156 18.11152344 66.60070312 18.28554688 65.84765625 18.46484375 C64.00030102 18.83887569 64.00030102 18.83887569 63 20 C62.93544476 26.13274783 64.20832116 30.2298234 68 35 C66.3125 35.8125 66.3125 35.8125 64 36 C61.4375 33.8125 61.4375 33.8125 59 31 C58.4225 30.34 57.845 29.68 57.25 29 C55.79983027 26.67972842 55.37404958 24.69315696 55 22 C54.0925 22 53.185 22 52.25 22 C49.83333333 22 47.41666667 22 45 22 C44.01 22.66 43.02 23.32 42 24 C42.47050781 24.39832031 42.94101563 24.79664063 43.42578125 25.20703125 C44.04839844 25.73683594 44.67101562 26.26664062 45.3125 26.8125 C45.92738281 27.33457031 46.54226562 27.85664063 47.17578125 28.39453125 C48.85424679 29.87172469 50.43882034 31.40039131 52 33 C50.35 34.32 48.7 35.64 47 37 C41.37634694 31.80893563 36.66581237 27.27039736 34 20 C34.25 17 34.25 17 35 15 C37.31 15 39.62 15 42 15 C42 12.03 42 9.06 42 6 C37.38 6 32.76 6 28 6 C28 15.9 28 25.8 28 36 C29.32 36.66 30.64 37.32 32 38 C33.54586876 41.09173752 33.29359521 43.59429552 33 47 C31.5625 49.4375 31.5625 49.4375 29 51 C24.34248645 51.8572653 20.96205206 51.49952703 16.75 49.3125 C13.98992302 46.99152618 11.40582535 44.68886363 9 42 C9 41.34 9 40.68 9 40 C10.32 39.34 11.64 38.68 13 38 C13.3403125 38.5053125 13.680625 39.010625 14.03125 39.53125 C16.87766578 43.52554654 16.87766578 43.52554654 21.1796875 45.46484375 C23.62022609 45.47376462 23.62022609 45.47376462 27 45 C27.33 43.68 27.66 42.36 28 41 C25.69 41 23.38 41 21 41 C20.34 39.35 19.68 37.7 19 36 C20.485 35.505 20.485 35.505 22 35 C21.34 32.36 20.68 29.72 20 27 C19.13375 27.103125 18.2675 27.20625 17.375 27.3125 C12.86137358 26.89457163 11.16041392 25.16041392 8 22 C5.77163324 18.59015019 5.78765719 15.76776939 5.875 11.75 C5.89304688 10.67234375 5.91109375 9.5946875 5.9296875 8.484375 C5.96449219 7.25460937 5.96449219 7.25460937 6 6 C4.68 6 3.36 6 2 6 C0 3 0 3 0 0 Z " fill="#1E4E8F" transform="translate(149,358)"/>
<path d="M0 0 C0 56.76 0 113.52 0 172 C-8.25 173.65 -16.5 175.3 -25 177 C-55.95936567 184.06903246 -83.29824322 194.2854554 -110.65625 210.70703125 C-113 212 -113 212 -115 212 C-114.54762239 210.08191891 -114.08785537 208.16557967 -113.625 206.25 C-113.36976563 205.18265625 -113.11453125 204.1153125 -112.8515625 203.015625 C-111.18416862 197.11090904 -108.87415564 194.81353086 -103.75 191.5 C-103.10466309 191.07710693 -102.45932617 190.65421387 -101.79443359 190.21850586 C-95.87795884 186.42075939 -89.77907987 182.9581407 -83.625 179.5625 C-82.71073242 179.05460938 -81.79646484 178.54671875 -80.85449219 178.0234375 C-75.37080361 175.05368673 -69.98963348 172.73447302 -64 171 C-62.80375 170.649375 -61.6075 170.29875 -60.375 169.9375 C-55.15867419 168.67293617 -49.80765555 168.12229451 -44.48828125 167.46484375 C-41.64219038 167.08557744 -38.8154922 166.56309844 -36 166 C-26.1 165.505 -26.1 165.505 -16 165 C-16 110.88 -16 56.76 -16 1 C-9 0 -9 0 0 0 Z " fill="#1F5DB1" transform="translate(383,106)"/>
<path d="M0 0 C5.28 0.33 10.56 0.66 16 1 C16 55.12 16 109.24 16 165 C24.415 165.495 24.415 165.495 33 166 C62.22864957 169.41503122 86.2151547 178.55316315 109.76953125 196.3359375 C111.75533316 199.02149818 112.33537065 201.984669 113.1875 205.1875 C113.53167969 206.45980469 113.87585938 207.73210937 114.23046875 209.04296875 C114.48441406 210.01878906 114.73835938 210.99460937 115 212 C110.86331589 210.7279059 107.23592005 209.17540661 103.46484375 207.05859375 C101.89645752 206.18956421 101.89645752 206.18956421 100.29638672 205.30297852 C98.63373779 204.37956665 98.63373779 204.37956665 96.9375 203.4375 C70.05282984 188.79371996 42.88589829 180.77589669 13.02539062 174.57592773 C12.23668076 174.41135574 11.44797089 174.24678375 10.63536072 174.07722473 C9.13820312 173.76593394 7.64030783 173.45816513 6.14161682 173.15434265 C1.11054701 172.11054701 1.11054701 172.11054701 0 171 C-0.0970006 168.79774546 -0.12186709 166.59231336 -0.12025452 164.38792419 C-0.12110894 163.68878232 -0.12196337 162.98964044 -0.12284368 162.26931244 C-0.12450051 159.90925249 -0.11897384 157.54926247 -0.11352539 155.18920898 C-0.11324354 153.50435386 -0.11340122 151.81949861 -0.1139679 150.13464355 C-0.11425594 145.54599547 -0.10835811 140.9573733 -0.10139394 136.36873126 C-0.09516153 131.57875368 -0.09455669 126.78877557 -0.09336853 121.99879456 C-0.09025488 112.92170968 -0.08204104 103.84463679 -0.07201904 94.7675572 C-0.06085895 84.43641419 -0.05534772 74.10527061 -0.05032361 63.77412307 C-0.03985845 42.51607517 -0.02205798 21.25803876 0 0 Z " fill="#1F5DB1" transform="translate(123,106)"/>
<path d="M0 0 C3.96 0 7.92 0 12 0 C12 56.43 12 112.86 12 171 C-0.375 171.99 -0.375 171.99 -13 173 C-28.00033468 175.23761898 -40.85695405 178.88883024 -55 184 C-57.02523492 184.72681656 -59.05071334 185.45295494 -61.07641602 186.1784668 C-62.11153824 186.54932907 -63.14666046 186.92019135 -64.21315002 187.30229187 C-68.44410474 188.81759965 -72.67527239 190.33231164 -76.90673828 191.84619141 C-79.08535373 192.62726686 -81.26306437 193.4108699 -83.43994141 194.19677734 C-86.62678108 195.34649286 -89.81689359 196.48666363 -93.0078125 197.625 C-93.98469025 197.98005615 -94.96156799 198.3351123 -95.9680481 198.70092773 C-97.31248489 199.17767944 -97.31248489 199.17767944 -98.68408203 199.6640625 C-99.86600632 200.08872803 -99.86600632 200.08872803 -101.07180786 200.52197266 C-103 201 -103 201 -105 200 C-94.82547771 182.64587528 -66.22115534 173.44610708 -47.55078125 168.41796875 C-43.39356796 167.42010122 -39.21957869 166.68244772 -35 166 C-34.02804687 165.79246094 -33.05609375 165.58492187 -32.0546875 165.37109375 C-21.41566939 163.20388636 -10.98811032 163.47774393 0 163 C0 109.21 0 55.42 0 0 Z " fill="#1A4B8D" transform="translate(390,121)"/>
<path d="M0 0 C3.63 0 7.26 0 11 0 C11 53.79 11 107.58 11 163 C22.385 163.495 22.385 163.495 34 164 C38.11585447 164.48338187 42.02316424 164.97321939 46.0625 165.75 C47.49710571 166.01550659 47.49710571 166.01550659 48.96069336 166.28637695 C55.90309914 167.63793855 62.47884116 169.45600035 69.02050781 172.18261719 C71.40504114 173.16725182 73.80748604 174.10157035 76.2109375 175.0390625 C107.42536652 187.33761209 107.42536652 187.33761209 117 200 C113.28796421 201.23734526 112.13640575 200.60652777 108.48828125 199.33203125 C106.78623535 198.74252686 106.78623535 198.74252686 105.04980469 198.14111328 C103.81649414 197.7026709 102.58318359 197.26422852 101.3125 196.8125 C100.02132509 196.36134037 98.72998072 195.91066546 97.43847656 195.46044922 C89.03248396 192.51254779 80.70079146 189.38527034 72.38110352 186.20336914 C60.40625613 181.62481852 48.69965708 177.15200432 36 175 C34.89527344 174.8040625 33.79054687 174.608125 32.65234375 174.40625 C21.83586463 172.68573402 10.90232749 171.99112068 0 171 C0 114.57 0 58.14 0 0 Z " fill="#14468A" transform="translate(104,121)"/>
<path d="M0 0 C7.92 0 15.84 0 24 0 C24 1.65 24 3.3 24 5 C22.77023438 5.14695312 22.77023438 5.14695312 21.515625 5.296875 C19.89914063 5.52117187 19.89914063 5.52117187 18.25 5.75 C17.18265625 5.88921875 16.1153125 6.0284375 15.015625 6.171875 C11.5568882 7.12168355 10.4236771 8.45308508 8 11 C4.25 11.25 4.25 11.25 1 11 C0.67 7.37 0.34 3.74 0 0 Z " fill="#FCFDFD" transform="translate(197,364)"/>
<path d="M0 0 C2.64 0 5.28 0 8 0 C8.10794277 2.26979665 8.18556176 4.54105196 8.25 6.8125 C8.29640625 8.07707031 8.3428125 9.34164063 8.390625 10.64453125 C8 14 8 14 6.21875 15.9375 C3.09975998 17.43110085 0.40537419 17.1964639 -3 17 C-3.33 16.01 -3.66 15.02 -4 14 C-2.7625 12.948125 -2.7625 12.948125 -1.5 11.875 C1.26855565 9.23462311 1.26855565 9.23462311 1.375 5.875 C1.0846416 2.93580872 1.0846416 2.93580872 0 0 Z " fill="#F9FAFC" transform="translate(335,364)"/>
<path d="M0 0 C2.64 0 5.28 0 8 0 C8.08078641 2.12438339 8.13909141 4.2496323 8.1875 6.375 C8.22230469 7.55835938 8.25710937 8.74171875 8.29296875 9.9609375 C8.19628906 10.96382813 8.09960938 11.96671875 8 13 C5 15 5 15 0 15 C0 10.05 0 5.1 0 0 Z " fill="#FCFDFD" transform="translate(162,364)"/>
<path d="M0 0 C0.25 2.3125 0.25 2.3125 0 5 C-2.20035016 7.36333906 -3.46590679 7.95031691 -6.6875 8.25 C-9 8 -9 8 -10 7 C-10.25 4.5625 -10.25 4.5625 -10 2 C-6.3558226 -0.4294516 -4.28758728 -0.16179575 0 0 Z " fill="#F5F7FA" transform="translate(249,374)"/>
</svg>
